<svg xmlns="http://www.w3.org/2000/svg" viewBox="0 0 4680 3120"><defs><style>.cls-1{isolation:isolate;}.cls-2,.cls-4{fill:#fff;}.cls-2{opacity:0;}.cls-3{fill:#d6e6fe;}.cls-5{fill:#6178e3;}.cls-6{fill:#9db8fd;}.cls-7{fill:#3b3b3b;}.cls-8{fill:#8da3df;}.cls-9{fill:#fdd305;}.cls-10{fill:#231f20;}.cls-11{fill:#a3a6a8;}.cls-12{opacity:0.5;mix-blend-mode:multiply;}.cls-13{fill:#f19f4d;}.cls-14{fill:#e6e7e8;}.cls-15{mix-blend-mode:screen;}.cls-16{fill:#87b1fd;}.cls-17{fill:#0a3d56;}.cls-18{fill:#f66801;}.cls-19{fill:#2727a9;}.cls-20{fill:#3f45cb;}.cls-21{fill:#993e2b;}.cls-22{fill:#fdc105;}.cls-23{fill:#000001;}.cls-24{fill:#495ad6;}.cls-25{fill:#91d4ff;}</style></defs><title>08</title><g class="cls-1"><g id="_08" data-name="08"><rect id="_08-2" data-name="08" class="cls-2" width="4680" height="3120"/><path class="cls-3" d="M3795.66,664.67c-226-174.75-548-197.1-823-129.9-115.22,28.15-228.31,70.55-348.7,70-175.59-.84-337.64-91.89-502.61-154.84-224.54-85.71-476.79-121.06-702.83-57.28C1162.18,465,964.4,675.13,959.85,932.87c-2.05,116.8,132,311.27,103.93,424.08-28.44,114.43-274.71,478-246.71,736.81q1.41,13.14,3.41,26.49c.49,3.37,1,6.76,1.58,10.15a745,745,0,0,0,33.39,130.12s0,0,0,0c40.83,114.63,108.3,213.63,193.23,290.26a682.78,682.78,0,0,0,111.6,81.93c129.45,76.09,283,108,439.4,80.14l98.07-17.5,256-45.66,24.27-4.34q57.39-10.23,115-18.4,98.41-13.93,197.4-21.86,35.93-2.88,71.9-5,12.72-.75,25.46-1.38,9.39-.48,18.79-.9a3341.56,3341.56,0,0,1,508,16.19c556.24,60.1,963,34.93,1084.72-154.83,54.28-84.61,44-210,16.37-322.43-26.9-109.34-70.28-206.38-86.78-241.6-63.41-135.38,68.4-262,112.41-396.42,39.15-119.67,43.77-260.1,21.59-385.19C4032.68,942.84,3940.67,776.82,3795.66,664.67Z"/><path class="cls-4" d="M2290.47,2605.13a103.79,103.79,0,0,0-27.26,21.83q7-1,14-2.08c29.2-4.67,58.79-11.79,85.15-24.71q12.72-.75,25.46-1.38a86.28,86.28,0,0,0-13.5-5.05C2347.11,2586,2315.78,2590.92,2290.47,2605.13Z"/><path class="cls-4" d="M3820.55,2132.17c48.61-19.1,101.12-41.55,125.7-87.62s-3-119.49-55.11-116.42c29.26-69.45-17.17-159.84-90.66-176.5,18.05-11.9,25.85-37.19,17.65-57.19s-31.53-32.51-52.73-28.3l-.23.9c-105.63-12.77-216.47,32.32-283.19,115.2s-87.11,200.79-52.07,301.26c-36.52-38.24-109.19-.61-116.25,51.8-6.94,51.48,29.13,99.42,71.56,129.73-61.66-42.61-157-25.19-199.14,37-58.9-58.25-176.84-27.35-199.61,52.28-20.5-40.89-53.24-77.67-96.35-93s-96.95-4.43-123.65,32.71-14.53,98.8,27.9,115.89c-39.62.28-76.67,32.12-82.91,71.25,4.57-45.49-22.16-92.46-63.59-111.76s-94.58-9.58-126.48,23.17c2.67-51.62-73.94-84.91-109.85-47.72s0,112.59,51.54,108.11a129.07,129.07,0,0,0-24.56,22.15c-22.7,26.39-35.26,61.59-34.81,96.43a132.82,132.82,0,0,0,2.91,26.29,3341.56,3341.56,0,0,1,508,16.19c556.24,60.1,963,34.93,1084.72-154.83,54.28-84.61,44-210,16.37-322.43C3954.58,2117.37,3885.26,2122.47,3820.55,2132.17Z"/><path class="cls-4" d="M2435,2462c-14.76-40.75-71.08-63.82-105.18-37.06,11.38-62.63-19.89-130.8-74.79-163s-129.67-26.27-178.79,14.22c11.27-80.18-85.49-153-159.41-120,37.43-35.81,43.71-99.59,14-142s-91.83-58.29-138.26-35.32c9.7-31.71-25.1-64.48-58-60.6s-57.89,34.22-65.6,66.47-1.68,66.07,5.5,98.45c-27.42-69.81-136.6-87.22-184.38-29.4.44-103.73-44.31-210.76-130-269.17s-213-56.61-286.52,16.59-68.23,214.59,19,270.76l-64.69,15.67c-61-25.85-137.68-31.47-188.59,11a89.28,89.28,0,0,0-18.65,21.67c.49,3.37,1,6.76,1.58,10.15a745,745,0,0,0,33.39,130.12s0,0,0,0c40.83,114.63,108.3,213.63,193.23,290.26a682.78,682.78,0,0,0,111.6,81.93c42.24-8.78,83.94-20.77,126.89-24.58,124.74-11,243.69,47.07,365.1,77.8,14.78,3.75,30,6.92,45.48,9.42,90.37,14.65,189,6.4,256-45.66a192.09,192.09,0,0,0,41.38-44.06,625.14,625.14,0,0,0,97.91,21.32,631.49,631.49,0,0,0,170.14,0q7-1,14-2.08c29.2-4.67,58.79-11.79,85.15-24.71,4.08-2,8.06-4.13,12-6.43a157.47,157.47,0,0,0,22.41-15.78c2.4-2,4.72-4.15,7-6.36,25.52-25.16,41.07-62.07,34.81-96.43A82.25,82.25,0,0,0,2435,2462Z"/><path class="cls-5" d="M3850.18,2303.16c-74.73,83.11-176.57,143.91-176.57,143.91l-158,185.42,270.9.4c73-37.32,122.65-90.49,168.55-175.34s90-62.55,176.59-154,47.74-179.08,20.71-253.69C4072.64,2083.14,3924.91,2220.05,3850.18,2303.16Z"/><path d="M3787.38,2636.39h-.85l-278.46-.41,163.25-191.62.5-.29c1-.61,102.26-61.51,175.76-143.25,40.81-45.39,96.71-99.83,149.53-145.64,44.93-39,108.11-89.42,153.94-108.53l3.38-1.41,1.25,3.45q2.14,5.89,4.35,11.9c13,35.3,27.66,75.32,28.36,116.53.8,47.38-16.92,89.53-54.17,128.85-39.77,42-70.06,59.85-96.79,75.62-30.57,18-54.71,32.27-79.26,77.63-47.1,87.05-98,139.92-170,176.78ZM3523.21,2629l262.48.39c70.34-36.15,120.11-88.09,166.33-173.5,25.47-47.08,50.35-61.75,81.85-80.33,26.33-15.53,56.17-33.13,95.26-74.4,80.56-85,50.69-166.39,24.33-238.16l-3.09-8.43c-78.1,34.63-222.15,167-297.59,250.93l-2.6-2.34,2.6,2.34c-71.54,79.56-169,139.49-176.87,144.27Z"/><path class="cls-6" d="M3850.18,2303.16c-23.47,26.1-49.61,50-74.43,70.5h0c41.5-32.34,173.18-53.18,248.32-118.57,28.25-24.59,35.73-83.06,51-117.09s49.25-73.88,77.28-88.12C4072.64,2083.14,3924.91,2220.05,3850.18,2303.16Z"/><path d="M3777.9,2376.42l-4.38-5.46.08-.06h0c28.32-23.41,53.21-47,74-70.08h0c40.81-45.39,96.71-99.83,149.53-145.64,44.93-39,108.11-89.42,153.94-108.53L4154,2053c-26.3,13.36-60.25,52.13-75.68,86.44-5,11-9.07,24.62-13.44,39-9.23,30.52-18.78,62.09-38.5,79.24-45.37,39.49-111.71,63.11-165,82.09C3825.3,2352.66,3794.17,2363.75,3777.9,2376.42Zm72.28-73.26,2.6,2.34a649.62,649.62,0,0,1-49.05,48.69c15.74-6.88,34.72-13.64,55.27-21,52.75-18.78,118.39-42.16,162.77-80.78,18.19-15.83,27.44-46.41,36.39-76,4.43-14.65,8.62-28.48,13.76-39.9,10-22.35,27.15-46,45.35-64.1-80.9,50-198.75,159.94-264.49,233Z"/><path class="cls-7" d="M3662.12,2633.68l-4.68-2c17.43-41.54,60.53-87.26,93.62-118.29,37.17-34.87,83.18-71.07,120.06-94.47,65.14-41.33,82.64-52.44,139.53-117.24,31.23-35.58,53.54-85,73.23-128.7,15.35-34.05,28.61-63.45,42.86-78.58l3.69,3.47c-13.67,14.51-26.77,43.56-41.93,77.19-19.83,44-42.31,93.81-74.05,130-55.25,62.94-73.25,75.43-140.61,118.17-36.64,23.24-82.36,59.22-119.31,93.89C3721.8,2547.83,3679.2,2593,3662.12,2633.68Z"/><path class="cls-5" d="M3318.09,2141.25c-34.79,123.51-19.16,252-21.42,351.33S3279,2632.15,3279,2632.15l200.22.29S3494.66,2482.07,3516,2360s40.07-152,60.57-256.62,4.83-123.35,15.57-215.61c11.59-99.55,43.48-167.51,43.48-167.51C3442.25,1786.88,3352.89,2017.74,3318.09,2141.25Z"/><path d="M3482.34,2636l-208.47-.3,1.82-4.75c.15-.4,15.26-41.09,17.48-138.4.58-25.29,0-52.39-.63-81.08-1.81-83.74-3.86-178.65,22.19-271.12l3.36.95-3.36-.95c17.1-60.71,48.28-150.36,99.7-232.73,60.58-97,134.63-161.19,220.09-190.64l7.82-2.69-3.51,7.49c-.31.67-31.79,68.65-43.17,166.43-4.52,38.78-4.34,64.4-4.17,89.18.23,33.91.45,65.93-11.45,126.69-9.3,47.49-18.4,80.23-27.2,111.89-10.66,38.35-21.69,78-33.36,144.67-21.1,120.56-36.66,270.71-36.82,272.21Zm-198.54-7.29,192.23.28c2.36-22.31,17.11-158.44,36.56-269.56,11.73-67,22.8-106.83,33.5-145.34,8.77-31.53,17.83-64.13,27.08-111.36,11.77-60.06,11.55-91.75,11.32-125.29-.17-25-.35-50.83,4.21-90,9.34-80.2,32.08-140.67,40.55-161.09-80.72,30-151,92.24-208.88,185-51,81.67-81.93,170.66-98.91,230.93-25.76,91.46-23.72,185.82-21.92,269.07.62,28.77,1.21,55.95.63,81.39C3298.32,2573.7,3287.86,2615.38,3283.8,2628.66Z"/><path d="M3420.7,2556l-4.9-1.3c9.87-37.12,10.27-126.19,10.7-220.49.46-101.23,1-216,12.88-294.52,12-79.28,46.93-144.82,74.11-185.83,29.45-44.44,56.47-70.53,56.74-70.79l3.5,3.66c-.26.26-26.95,26-56.1,70-26.86,40.56-61.38,105.36-73.24,183.67s-12.36,192.73-12.82,293.78C3431.12,2433,3430.73,2518.26,3420.7,2556Z"/><path class="cls-6" d="M3732.14,1845.59c-39.06,37.36-39.19,128-91.8,156.73S3496,2122,3465.4,2195.15s-49.49,214.13-51.26,270.26-34.12,141-49.42,166.87l196.71.28S3704,2511.88,3741.49,2417s27.42-197.13,66.5-253.2,108.41-131.22,163.08-198.45c74.74-91.91,97-209.72,97-209.72s-95,31.35-157.76,38.46S3771.2,1808.23,3732.14,1845.59Z"/><path d="M3562.71,2636.06l-204.12-.29,3.12-5.27c16.28-27.54,47.22-111.18,48.93-165.2,1.83-57.65,20.61-197.67,51.53-271.5,14.17-33.82,42.55-74.35,79.91-114.12,33.47-35.62,69.58-65.69,96.59-80.43,28.44-15.52,41.24-50.78,53.63-84.89,10.15-28,19.75-54.39,37.42-71.3h0c38.24-36.58,109.32-44.55,172-51.59l8.13-.91c61.68-7,156.11-38,157-38.31l5.64-1.86-1.1,5.84c-.06.29-5.78,30.2-20.6,70.94-13.69,37.61-38.17,92.48-77.08,140.34-19.79,24.33-41.73,50-62.95,74.77-38.63,45.16-75.12,87.81-100,123.47-20.52,29.45-27.16,71.64-34.84,120.49-6.47,41.09-13.79,87.67-31.28,132-15.69,39.8-50.95,88.43-104.8,144.55-40,41.68-75.89,72.15-76.25,72.45Zm-192-7.27,189.46.27c12.61-10.84,143-124.46,178.1-213.4,17.2-43.6,24.46-89.77,30.87-130.51,7.82-49.7,14.57-92.63,36-123.4,25.06-35.95,61.66-78.73,100.4-124,21.19-24.77,43.11-50.38,62.83-74.64,64-78.64,89.39-177.53,95-202.33-21.63,6.87-99.18,30.7-152.68,36.75l-8.13.92c-61.61,6.91-131.44,14.74-168,49.69-16.49,15.77-25.81,41.45-35.68,68.63-12.83,35.33-26.1,71.86-56.86,88.65-26.4,14.4-61.85,44-94.84,79.08-36.8,39.17-64.7,79-78.55,112-30.17,72-49.23,213.42-51,269C3416,2517.55,3387.79,2596.46,3370.67,2628.79Z"/><path class="cls-5" d="M3874.41,1965.16c-47.54,41.58-73.08,116.55-87.26,245.72l.06,0c5-17.8,11.5-33.78,20.78-47.1,39.08-56.07,108.41-131.22,163.08-198.45,74.74-91.91,97-209.72,97-209.72C4052.68,1816.17,3922,1923.58,3874.41,1965.16Z"/><path d="M3783,2216.82l.65-6.32c14.52-132.29,41-206.46,88.44-248,4.79-4.2,10.31-9,16.7-14.47,56.72-48.9,162.29-139.92,175.83-193.34l6.83,1.51c-.06.29-5.78,30.2-20.6,70.94-13.69,37.61-38.17,92.48-77.09,140.34-19.78,24.33-41.72,50-62.94,74.78-38.63,45.15-75.12,87.8-100,123.46-8.22,11.79-14.85,26.86-20.28,46.05l-.47,1.66-1.48.59Zm93.7-249c-42.33,37-67.5,101.56-82.41,213.08a122.83,122.83,0,0,1,10.81-19.12c25.06-35.95,61.65-78.73,100.4-124,21.19-24.77,43.1-50.39,62.83-74.65,49-60.21,75.37-132.36,87.56-174-35,54.27-115.42,123.63-162.53,164.24-6.38,5.51-11.89,10.26-16.66,14.43Z"/><path d="M3443,2633.92l-4-3.07c26.84-35.16,55.41-108.06,88.5-192.49,30.76-78.49,65.63-167.46,105.24-239.92,45.45-83.16,117.78-200.68,172-258.21,33.06-35,75.6-61.42,116.74-86.93,27-16.77,55-34.11,80.46-53.93l3.11,4c-25.65,20-53.74,37.4-80.9,54.24-42.74,26.5-83.12,51.53-115.72,86.1-53.92,57.18-126,174.27-171.27,257.17-39.44,72.17-74.25,161-105,239.33C3499,2525,3470.31,2598.21,3443,2633.92Z"/><path class="cls-5" d="M880.9,2243.27c-86.14-95.8-256.41-253.6-348.33-291.93-31.15,86-76,187,23.88,292.4S707.06,2323.43,760,2421.22s110.17,159.09,194.28,202.09l312.23-.45-182.08-213.72S967,2339.06,880.9,2243.27Z"/><path d="M953.42,2626.81l-.76-.38c-83-42.43-141.52-103.3-195.76-203.54-28.36-52.42-56.25-68.87-91.55-89.69-30.78-18.15-65.65-38.72-111.44-87.06-42.84-45.21-63.21-93.67-62.29-148.13.8-47.42,17.72-93.49,32.65-134.15q2.54-6.91,5-13.71l1.25-3.45,3.39,1.41c52.75,22,125.52,80.12,177.28,125,60.86,52.78,125.28,115.52,172.3,167.82,84.81,94.3,201.54,164.51,202.7,165.21l.5.29.37.44,187,219.48ZM534.6,1956c-1.24,3.4-2.5,6.81-3.76,10.26-30.43,82.87-64.93,176.8,28.15,275,45.11,47.62,79.54,67.92,109.91,85.84,36.24,21.38,64.87,38.26,94.15,92.39,53.35,98.59,110.82,158.53,192.05,200.25l303.82-.44-176.81-207.53c-8.49-5.15-121.16-74.32-203.81-166.23-46.85-52.1-111-114.61-171.69-167.21C617.08,2000.76,564,1969,534.6,1956Z"/><path class="cls-6" d="M880.9,2243.27c-86.14-95.8-256.41-253.6-348.33-291.93,32.31,16.41,71.43,62.34,89.08,101.57s26.26,106.61,58.83,135c86.6,75.36,238.38,99.39,286.21,136.66h0C938.08,2300.89,908,2273.35,880.9,2243.27Z"/><path d="M964.54,2327.29l-.08-.06h0c-18.84-14.64-54.72-27.41-96.25-42.21-61.4-21.86-137.8-49.06-190-94.51-22.6-19.68-33.59-56-44.21-91.09-5-16.65-9.8-32.37-15.51-45.08-17.83-39.63-57.07-84.43-87.47-99.88l2.93-6.35c52.75,22,125.52,80.12,177.28,125,60.86,52.78,125.28,115.52,172.3,167.82h0c24,26.67,52.72,53.89,85.42,80.9ZM569.07,1974.22c22.26,21.25,43.54,50.06,55.77,77.25,5.9,13.12,10.72,29.05,15.83,45.92,10.34,34.16,21,69.49,42.11,87.83,51.22,44.58,126.94,71.55,187.77,93.21,25.05,8.92,48.08,17.12,66.77,25.52a752.8,752.8,0,0,1-59-58.34h0c-46.85-52.1-111-114.61-171.69-167.21C666.86,2043.93,614.69,2001.62,569.07,1974.22Z"/><path class="cls-7" d="M1098,2624.08c-19.72-47-68.86-99.07-106.6-134.48-42.62-40-95.33-81.45-137.58-108.26-77.6-49.23-98.34-63.62-162-136.13-36.54-41.63-62.44-99-85.28-149.7-17.5-38.8-32.61-72.3-48.4-89.08l3.69-3.47c16.37,17.39,31.65,51.25,49.33,90.46,22.7,50.34,48.43,107.39,84.47,148.45,65.6,74.72,85.78,87.53,160.9,135.19,42.49,27,95.49,68.67,138.32,108.85,38.11,35.74,87.75,88.39,107.81,136.21Z"/><path class="cls-5" d="M1494.18,2056.65c-40.1-142.36-143.1-408.44-366-485.25,0,0,36.76,78.32,50.12,193.07,12.38,106.34-5.68,127.89,18,248.5s45.18,155.08,69.82,295.79,42.47,314,42.47,314l230.79-.33s-17.81-46.42-20.42-160.88S1534.29,2199,1494.18,2056.65Z"/><path d="M1305.36,2626.3l-.33-3.14c-.18-1.73-18.11-174.81-42.44-313.79-13.46-76.87-26.17-122.58-38.46-166.8-10.14-36.48-20.62-74.2-31.34-128.92-13.71-70-13.46-106.87-13.19-145.92.2-28.57.4-58.12-4.8-102.85-13.14-112.8-49.45-191.22-49.82-192l-3.51-7.49,7.82,2.7c98.39,33.9,183.64,107.75,253.41,219.5,59.23,94.89,95.15,198.17,114.85,268.11,30,106.5,27.64,215.85,25.56,312.33-.72,33.08-1.4,64.33-.73,93.48,2.56,112.29,20,159.24,20.18,159.71l1.81,4.74h-5.07ZM1134.58,1577.4c9.34,22.34,36.24,92.75,47.17,186.67,5.26,45.16,5,74.92,4.85,103.71-.26,38.69-.52,75.24,13.06,144.52,10.67,54.46,21.11,92,31.22,128.4,12.33,44.37,25.09,90.26,38.61,167.46,22.56,128.88,39.62,287,42.18,311.13l222.76-.32c-4.49-14.45-16.89-62.45-19-157.3-.67-29.31,0-60.63.73-93.79,2.07-96,4.43-204.78-25.29-310.28-19.58-69.5-55.27-172.12-114.06-266.3C1309.67,1683.82,1228.23,1611.9,1134.58,1577.4Z"/><path d="M1376.3,2534.61c-11.56-43.47-12-141.74-12.52-255.52-.53-116.49-1.13-248.51-14.78-338.66-13.69-90.35-53.5-165.09-84.49-211.88-33.62-50.75-64.4-80.49-64.71-80.79l3.51-3.65c.31.29,31.42,30.34,65.34,81.52,31.31,47.24,71.53,122.72,85.36,214,13.71,90.52,14.31,222.74,14.84,339.39.51,113.44,1,211.41,12.35,254.24Z"/><path class="cls-6" d="M1324.4,2118.77c-35.31-84.28-141-189.16-201.64-222.25S1062,1758.93,1017,1715.87s-133-51.23-205.31-59.42-181.83-44.33-181.83-44.33,25.6,135.79,111.75,241.73c63,77.49,142.92,164.11,188,228.74S963,2265,1006.18,2374.42s207.54,248.52,207.54,248.52l226.72-.33c-17.63-29.83-54.91-127.65-57-192.34S1359.7,2203.06,1324.4,2118.77Z"/><path d="M1212.44,2626.44l-1-.83c-.41-.35-41.77-35.45-87.85-83.48-42.64-44.43-98.18-109.37-120.69-166.42-20.12-51-28.56-104.69-36-152-8.87-56.37-16.53-105-40.25-139.09-28.67-41.13-70.74-90.31-115.28-142.36-24.45-28.59-49.74-58.14-72.53-86.17-44.81-55.1-73-118.3-88.76-161.6-17.07-46.92-23.66-81.35-23.72-81.69l-1.1-5.83,5.63,1.86c1.09.36,110,36.12,181.14,44.17l9.36,1.06c72.2,8.1,154,17.28,198,59.31,20.28,19.4,31.32,49.8,43,82,14.3,39.4,29.1,80.15,62.06,98.13,31.08,17,72.65,51.58,111.19,92.61,43,45.79,75.69,92.44,92,131.36h0c35.62,85,57.25,246.34,59.35,312.74,2,62.35,37.69,158.88,56.48,190.67l3.11,5.27Zm-578-1009.14a617.77,617.77,0,0,0,22.25,74.9c15.57,42.76,43.4,105.14,87.56,159.44,22.74,28,48,57.49,72.42,86,44.65,52.2,86.83,101.5,115.7,142.92,24.65,35.36,32.42,84.78,41.43,142,7.39,47,15.76,100.23,35.61,150.54,40.63,103,191.94,234.59,205.57,246.3l219.46-.32c-19.66-36.7-52.57-128.41-54.48-188.74-2-64.12-24-227.18-58.82-310.25-16-38.17-48.18-84.08-90.64-129.28-38.06-40.51-79-74.63-109.45-91.25-35.28-19.25-50.53-61.26-65.28-101.89-11.4-31.39-22.17-61-41.27-79.31C972.3,1678,891.72,1669,820.62,1661l-9.37-1C748.87,1652.87,658.07,1624.82,634.47,1617.3Z"/><path class="cls-5" d="M853,1853.69C798.18,1805.76,647.5,1682,629.81,1612.12c0,0,25.6,135.79,111.76,241.73,63,77.49,142.91,164.11,188,228.74,10.7,15.35,18.14,33.76,24,54.28l.07,0C937.21,1988,907.77,1901.62,853,1853.69Z"/><path d="M957.74,2142.94l-5.7-2.87-1.46-.58-.47-1.66c-6.27-22.19-14-39.6-23.45-53.24-28.67-41.13-70.74-90.3-115.27-142.36-24.46-28.58-49.74-58.14-72.54-86.17-44.81-55.1-73-118.3-88.76-161.6-17.07-46.92-23.66-81.35-23.72-81.69l6.83-1.51C648.84,1673,770.6,1778,836,1834.38c7.37,6.35,13.73,11.84,19.26,16.67h0c54.6,47.76,85,133.14,101.75,285.48ZM642.11,1647.16c3.6,12.64,8.4,28,14.61,45,15.57,42.76,43.4,105.14,87.56,159.44,22.74,28,48,57.49,72.42,86,44.66,52.19,86.83,101.49,115.7,142.91a146,146,0,0,1,13.91,25.29c-17.14-130.91-46.3-206.4-95.64-249.56h0c-5.51-4.82-11.87-10.29-19.22-16.64C776.2,1792.05,681.12,1710.07,642.11,1647.16Z"/><path d="M1350.48,2624.27c-31.39-41.12-64.46-125.49-102.75-223.17-35.4-90.32-75.52-192.7-121-275.91-52.24-95.57-135.3-230.56-197.46-296.49-37.61-39.89-84.17-68.75-133.46-99.3-31.3-19.41-63.67-39.47-93.21-62.5l3.11-4c29.33,22.86,61.58,42.85,92.77,62.19,47.4,29.38,96.41,59.77,134.48,100.14,62.49,66.27,145.84,201.69,198.22,297.53,45.63,83.49,85.82,186,121.27,276.49,38.15,97.33,71.1,181.39,102.06,221.95Z"/><ellipse class="cls-8" cx="2379.72" cy="2672.32" rx="1658.85" ry="87.68"/><path class="cls-9" d="M1911.17,1540.89a111.82,111.82,0,0,0-131,88.55c-.24,1.27-.43,2.54-.64,3.8l-.09,0s-12.65,61.49,31.94,119.21c0,0,15.27,16.25,7.55,56.19l24.23,4.68,29.51,5.71,24.23,4.68c7.72-39.93,27.95-49.32,27.95-49.32,62.89-36.93,74.07-98.7,74.07-98.7h0c.29-1.25.58-2.49.83-3.76A111.82,111.82,0,0,0,1911.17,1540.89Z"/><path d="M1915.49,1698.33c-2.21-1.6-6.21-2.51-12.76,2.26-4.92,3.58-9.73,11.86-14.39,24.73l-24.74-4.78c.47-13.69-.91-23.16-4.14-28.32-4.3-6.86-8.35-7.52-11-6.85-5.49,1.39-7.93,9-8.39,15.74-.56,8.45,1.82,19.54,10.41,23l.55.16,6.3,1.22c-1.84,28-10,66.18-14.46,83.84l5.85,1.47c0-.24,6.07-24.34,10.43-50.64q3.19-19.29,4.14-33.51l23.07,4.46q-4.42,13.55-8.65,32.63c-5.77,26-9.17,50.64-9.2,50.89l6,.81c2.47-18,9.12-56.53,17.83-83.18l6.88,1.27c9.25,0,15.59-9.38,18.22-17.44C1919.49,1709.68,1920.07,1701.67,1915.49,1698.33Zm-57.85,21.05-5.16-1c-5-2.24-6.85-10-6.39-16.88.41-6.11,2.53-10,3.84-10.29.53-.14,2.15.57,4.42,4.2C1857.13,1699.85,1858,1708.55,1857.64,1719.38Zm54-5.19c-2.12,6.52-6.71,13.09-12.22,13.28l-5.16-1c3.71-10.18,7.75-17.93,12-21,3.46-2.52,5.22-2.58,5.67-2.25C1913,1704,1913.57,1708.37,1911.68,1714.19Z"/><path class="cls-10" d="M1851.83,1874.82l-5.1-.68-5-1.27-.12.58-11.84-1.59s1,10.66,3.78,11.19l6,1.16,10.1,2,6,1.16c2.78.53,7.68-9,7.68-9l-11.58-2.95Z"/><path class="cls-11" d="M1818.89,1860.1a50.43,50.43,0,0,1,1.83,9.67,4.3,4.3,0,0,0,3.48,3.9l43.62,8.44a4.28,4.28,0,0,0,4.67-2.33,50.48,50.48,0,0,1,5.3-8.29c2.46-3.16,4.59-5.43,4.59-5.43l-65.73-12.71S1817.81,1856.25,1818.89,1860.1Z"/><g class="cls-12"><path class="cls-11" d="M1835.15,1856.93l-18.5-3.58s1.16,2.9,2.24,6.75a50.43,50.43,0,0,1,1.83,9.67,4.3,4.3,0,0,0,3.48,3.9l16.67,3.23a144.36,144.36,0,0,0-1.21-16.11Z"/></g><g class="cls-12"><path class="cls-11" d="M1818.89,1860.1l58.9,11.39c2.46-3.16,4.59-5.43,4.59-5.43l-65.73-12.71S1817.81,1856.25,1818.89,1860.1Z"/></g><path class="cls-13" d="M1807,1629.67c.22-1.36.43-2.73.69-4.11a120.81,120.81,0,0,1,64.95-85.37,111.85,111.85,0,0,0-92.46,89.25c-.24,1.27-.43,2.54-.64,3.8l-.09,0s-12.65,61.49,31.94,119.21c0,0,15.27,16.25,7.55,56.19l24.23,4.68-5.46-1c6.29-39.74,3.76-53.57,3.76-53.57-48.26-62.47-34.57-129-34.57-129Z"/><path class="cls-14" d="M1890.85,1850.06l-76.09-14.71a10.12,10.12,0,1,0-3.84,19.88l76.09,14.71a10.12,10.12,0,0,0,3.84-19.88Z"/><g class="cls-12"><path class="cls-11" d="M1802.9,1843.36a10.16,10.16,0,0,0,8,11.87l28.74,5.56a11.84,11.84,0,0,1,3.85-19.89l-28.75-5.55A10.15,10.15,0,0,0,1802.9,1843.36Z"/></g><g class="cls-12"><path class="cls-11" d="M1890.86,1850.06l-76.11-14.72a10.15,10.15,0,0,0-10,3.86l93.93,18.16a9.85,9.85,0,0,0-1.38-3A10.14,10.14,0,0,0,1890.86,1850.06Z"/></g><path class="cls-14" d="M1900.81,1836.26a10.21,10.21,0,0,0-6.46-4.27l-76.1-14.72a10.15,10.15,0,0,0-10,3.86,9.92,9.92,0,0,0-1.87,4.16,10.14,10.14,0,0,0,8,11.86l76.11,14.72a10.13,10.13,0,0,0,10.3-15.61Z"/><g class="cls-12"><path class="cls-11" d="M1806.4,1825.29a10.14,10.14,0,0,0,8,11.86l28.75,5.56a11.83,11.83,0,0,1,3.85-19.88l-28.75-5.56A10.14,10.14,0,0,0,1806.4,1825.29Z"/></g><g class="cls-12"><path class="cls-11" d="M1894.35,1832l-76.1-14.72a10.15,10.15,0,0,0-10,3.86l93.93,18.16a10.09,10.09,0,0,0-7.84-7.3Z"/></g><path class="cls-14" d="M1897.85,1813.9l-76.09-14.71a10.13,10.13,0,0,0-3.85,19.89l76.09,14.71a10.13,10.13,0,1,0,3.85-19.89Z"/><g class="cls-12"><path class="cls-11" d="M1809.89,1807.21a10.16,10.16,0,0,0,8,11.87l28.75,5.55a11.87,11.87,0,0,1-3.69-11h0a11.91,11.91,0,0,1,7.53-8.86l-28.74-5.56A10.16,10.16,0,0,0,1809.89,1807.21Z"/></g><g class="cls-15"><path class="cls-4" d="M1938.16,1585.88c-11.13,5.7-13.25,23.81-4.72,40.44s24.45,25.5,35.58,19.79,13.24-23.81,4.72-40.44S1949.29,1580.18,1938.16,1585.88Z"/></g><path d="M1827.25,1464.68a6.29,6.29,0,1,0-11.55,5l19.21,44.38a6.29,6.29,0,0,0,7.14,3.65,6.78,6.78,0,0,0,1.13-.37,6.3,6.3,0,0,0,3.28-8.28Z"/><path d="M1786.14,1552.82l-39.46-27.36a6.29,6.29,0,1,0-7.17,10.34l39.45,27.36a6.31,6.31,0,0,0,5,1,6.22,6.22,0,0,0,3.79-2.55A6.3,6.3,0,0,0,1786.14,1552.82Z"/><path d="M1752.38,1637.48l-41.84-6.72a6.29,6.29,0,0,0-2,12.43l41.84,6.72a6.29,6.29,0,1,0,2-12.43Z"/><path d="M2015.06,1501l-34.37,34a6.29,6.29,0,0,0,8.85,9l34.37-34a6.29,6.29,0,1,0-8.85-8.94Z"/><path d="M2067.19,1587.42h0l-46.81,10.68a6.29,6.29,0,0,0,2.77,12.27h0L2070,1599.7a6.29,6.29,0,0,0-2.77-12.28Z"/><path d="M2061.44,1698.62l-41.33-9.37a6.3,6.3,0,0,0-2.78,12.28l41.33,9.36a6.42,6.42,0,0,0,2.76,0,6.3,6.3,0,0,0,0-12.28Z"/><path d="M1928.27,1460.23a6.29,6.29,0,0,0-7.38,5l-8.79,45.49a6.29,6.29,0,1,0,12.35,2.39l8.8-45.49A6.29,6.29,0,0,0,1928.27,1460.23Z"/><path d="M1902.49,1818.37,1817.65,1802l.67-3.43c7-36-8-42.77-8.18-42.82l-.93-.35-.61-.79a164.38,164.38,0,0,1-33.4-83c-2.44-22.86.67-38.38.8-39l.42-2c.1-.57.19-1.13.3-1.7a115.31,115.31,0,0,1,226.43,43.78c-.21,1.12-.46,2.21-.71,3.31l-.08.42c-.12.65-3,16.21-13.81,36.52a164.38,164.38,0,0,1-61.94,64.58l-.83.48h-1c-.06,0-3.49.22-7.86,4.61s-10.13,13.4-13.81,32.45Zm-76.68-22,71.18,13.76c7.44-33.86,22.44-38.55,26.72-39.2,52.32-31,67.84-80.26,71.06-92.9l.84-3.77c.24-1,.47-2,.67-3.06a108.3,108.3,0,0,0-85.78-126.91h0a108.31,108.31,0,0,0-126.9,85.78c-.2,1-.35,2-.51,3l-.68,4.28-.08,0c-1.74,13.49-5.28,64.42,31.31,112.28C1817.68,1751.81,1831.5,1761.89,1825.81,1796.41Z"/><path d="M1888.93,1873.63a13.52,13.52,0,0,1-2.59-.25l-76.09-14.71a13.63,13.63,0,1,1,5.18-26.76l76.09,14.71a13.63,13.63,0,0,1-2.59,27Zm-76.09-35a6.64,6.64,0,0,0-6.5,5.37,6.64,6.64,0,0,0,5.24,7.76l76.09,14.72a6.63,6.63,0,1,0,2.52-13l-76.09-14.72A6.72,6.72,0,0,0,1812.84,1838.66Z"/><path d="M1892.44,1855.55a13.55,13.55,0,0,1-2.6-.25l-76.1-14.71a13.59,13.59,0,0,1-8.27-21.58,13.69,13.69,0,0,1,13.44-5.17l76.11,14.71a13.65,13.65,0,0,1,8.68,5.74v0a13.75,13.75,0,0,1,2.09,10.2,13.67,13.67,0,0,1-13.36,11Zm-76.08-35a6.69,6.69,0,0,0-5.31,2.65,6.39,6.39,0,0,0-1.22,2.71,6.6,6.6,0,0,0,1,5,6.51,6.51,0,0,0,4.21,2.78l76.1,14.72a6.59,6.59,0,0,0,7.64-8.21,6.41,6.41,0,0,0-.9-2,6.66,6.66,0,0,0-4.22-2.81l-76.11-14.71A6.23,6.23,0,0,0,1816.36,1820.59Z"/><path d="M1895.94,1837.48a14.22,14.22,0,0,1-2.6-.25l-76.09-14.72a13.63,13.63,0,0,1,5.17-26.76l76.09,14.72a13.63,13.63,0,0,1-2.57,27Zm-76.1-35a6.63,6.63,0,0,0-1.27,13.13l76.09,14.71a6.63,6.63,0,1,0,2.52-13l-76.09-14.71A6.69,6.69,0,0,0,1819.84,1802.51Z"/><path d="M1868.63,1885.69a7.33,7.33,0,0,1-1.47-.15l-43.62-8.43a7.81,7.81,0,0,1-6.31-7.09,46.09,46.09,0,0,0-1.71-9c-.46-1.62-.7-2.42-.82-2.8l-5-6.82,79.61,15.39-6.85,4.48c-.24.3-.77,1-1.85,2.35a45.69,45.69,0,0,0-4.92,7.66A7.82,7.82,0,0,1,1868.63,1885.69Zm-45.86-24.6a48.26,48.26,0,0,1,1.44,8.44.82.82,0,0,0,.65.71l43.63,8.43a.77.77,0,0,0,.85-.43,49.36,49.36,0,0,1,4.48-7.28Zm59.83,10Z"/><path d="M1825.91,1861.52l-11.85-2.06.46-5.59,4.64-1.34Zm-8.1-5-2.8,2.09Z"/><path d="M1882.3,1872.88l-11.29-3.23,9.54-5.27,3.7,3.15Zm-5.46-5.46,3.28,1.19Z"/><path class="cls-16" d="M3835.82,610.19c-85.71,0-155.19,42.89-155.19,95.8,0,25.87,16.61,49.33,43.61,66.57-2.55,17.9-7.1,49.2-5.4,49.2s27.93-18.51,44.16-31.16a234.45,234.45,0,0,0,72.82,11.19c85.72,0,155.2-42.89,155.2-95.8S3921.54,610.19,3835.82,610.19Z"/><path class="cls-4" d="M3753.13,689a17,17,0,1,0,17,17A17,17,0,0,0,3753.13,689Z"/><path class="cls-4" d="M3829.36,689a17,17,0,1,0,17,17A17,17,0,0,0,3829.36,689Z"/><path class="cls-4" d="M3905.61,689a17,17,0,1,0,17,17A17,17,0,0,0,3905.61,689Z"/><path d="M3704.47,831.45a3.67,3.67,0,0,1-2.76-1.27c-1.65-1.9-2.33-2.69,4.29-49.15l.08-.57c-28-18.47-43.32-42.65-43.32-68.28,0-26.85,16.73-52,47.12-70.72,29.85-18.43,69.48-28.58,111.57-28.58S3903.17,623,3933,641.46c30.38,18.75,47.12,43.87,47.12,70.72s-16.74,52-47.12,70.71c-29.86,18.43-69.48,28.58-111.58,28.58a240.65,240.65,0,0,1-72.14-10.78c-7.39,5.7-17.06,12.81-26.25,19.28C3706.77,831.45,3705.76,831.45,3704.47,831.45Zm117-211.57c-83.64,0-151.69,41.4-151.69,92.3,0,23.73,14.91,46.33,42,63.62l1.9,1.21-.72,5c-1.52,10.66-4.35,30.5-5.14,39.94,8.32-5.48,26.09-18.12,38.68-27.93l1.48-1.15,1.77.58c21.92,7.21,46.73,11,71.73,11,83.65,0,151.7-41.4,151.7-92.29S3905.1,619.88,3821.45,619.88Z"/><path class="cls-17" d="M1115.16,1750.69c3.77,28,95.5-10.25,94.42-29.64C1206.85,1672,1111.39,1722.7,1115.16,1750.69Z"/><path d="M1131.92,1764.1c-15.94,0-19.55-7.9-20.23-12.94h0c-1.33-9.88,7-22.22,22.94-33.85,20.12-14.71,49.16-25.49,65.76-17.64,5.39,2.55,12,8.3,12.69,21.19,1,17.29-48.57,40.38-75.75,43C1135.39,1764,1133.59,1764.1,1131.92,1764.1Zm55.13-60c-12.3,0-30.29,5.71-48.29,18.87-13.36,9.78-21.08,20.22-20.13,27.26.92,6.81,10.32,7.37,18,6.64,12.93-1.23,30.49-7,45.83-15.15,16.51-8.72,23.8-16.72,23.59-20.46-.43-7.7-3.27-12.69-8.7-15.25A24.51,24.51,0,0,0,1187.05,1704.09Z"/><path class="cls-4" d="M1196.52,1726.74l-9.34-49.93-67,4s12.86,48.21,11.2,57.13-10,70.82-6,81.89a9.23,9.23,0,0,0,.49,1.25c4.49,10.65,18,20.82,22.41,28,4.63,7.47,12.93,8.64,19.64,14.59s23.59,7.06,23.59,7.06,26.56,19.5,27.32,8.85c.9-13.28-14.67-24.83-14.67-24.83l-11.82-30s6.91-40.39,14.73-40.39,4.91,16.74,8.85,30c2.56,8.78,12.45,7.4,12.45,7.4l1-24.21s-1.59-34.72-6.09-41.29S1196.52,1726.74,1196.52,1726.74Z"/><path d="M1215.49,1886.22c-7.49,0-19.29-7.78-25.21-12-4.17-.35-18-1.93-24.67-7.87a41.11,41.11,0,0,0-7.92-5.15c-4.48-2.44-9.11-5-12.36-10.21-1.56-2.54-4.67-5.79-8-9.22-5.48-5.72-11.68-12.19-14.66-19.18a13.43,13.43,0,0,1-.61-1.58c-4.49-12.58,4.92-78.22,5.89-83.62,1.1-6-6.25-37.28-11.15-55.62l-1.1-4.14,74.31-4.45,9.71,51.94c4,4.12,22.29,23.18,26.43,29.32,4.8,7,6.4,37.12,6.68,43.09v.3l-1.09,27.13-2.89.4c-4.46.63-13.6-.64-16.3-9.89a84.74,84.74,0,0,1-2.57-15.66c-.46-4.76-1.09-11.2-2.72-11.79-3,2.17-8.21,18.82-11.32,36.48l11.12,28.15c3.43,2.77,16.15,14,15.25,27.24a6.45,6.45,0,0,1-3.71,5.77A7.54,7.54,0,0,1,1215.49,1886.22Zm-90.79-202.16c3.45,13.28,11.69,46.38,10.17,54.53-2.31,13-9.47,70.77-6.16,80.08a6.32,6.32,0,0,0,.32.85l.09.2c2.46,5.84,8.22,11.85,13.3,17.16,3.56,3.71,6.92,7.21,8.87,10.38,2.26,3.66,5.74,5.55,9.76,7.75a47.42,47.42,0,0,1,9.22,6.06c4.76,4.27,17.12,5.91,21.48,6.18l1,.07.83.61c8.75,6.42,18.78,11.63,21.76,11.38.6-9.3-9.37-18.84-13.26-21.73l-.8-.6-12.56-31.78.17-1c.07-.42,1.78-10.37,4.5-20.51,4.34-16.19,8.3-22.79,13.68-22.79,8.12.07,9,9.26,9.89,18.15a78.23,78.23,0,0,0,2.32,14.37,6.68,6.68,0,0,0,5.73,4.85l.83-20.65c-.65-14-2.77-35.38-5.48-39.33-3.5-5.2-20.23-22.79-26.39-29.14l-.73-.76-9-47.94Z"/><path class="cls-17" d="M1946,1087.12c-16.82,19.5-20.35,58.59-20.35,58.59s50,55.73,75.79,27.88S1962.08,1068.49,1946,1087.12Z"/><path d="M1983.65,1184.88h-.27c-27.2-.22-59-35.34-60.34-36.83l-1-1.14.13-1.51c.15-1.65,3.83-40.45,21.19-60.56h0c2.11-2.45,6-5.07,12.68-3.72,17.44,3.54,43.72,33.56,52.07,59.49,4.84,15,3.42,27.24-4.1,35.35A26.75,26.75,0,0,1,1983.65,1184.88Zm-54.35-40.38c5.6,5.93,32.55,33.21,54.15,33.38a19.93,19.93,0,0,0,15.42-6.67c7.2-7.77,5.37-19.76,2.57-28.46-6.82-21.15-30.73-51.51-46.8-54.77-3.63-.73-5.15.46-6,1.43h0C1934.57,1105.72,1930.15,1137.21,1929.3,1144.5Z"/><path class="cls-4" d="M2093.16,1037c-7.66-6-11.33,6.79-42.91,17.55l-1.78-5c3.57-3.44,9.55-9.24,15.24-14.85,8.54-8.58,22.29-18.61,23.91-24.19s-2.45-17.38-14.4-5.66c-17.32,17.07-39.8,31.68-38.56,29.15l-2.64-3c19-34,32.6-34.84,27.36-44.81s-21.48,7.5-32.52,20.79c-7.95,9.54-27.72,29.16-40.08,30.88a1.44,1.44,0,0,1-.75,0c-3.2.15-6.58-1.73-9-4.54a.64.64,0,0,0-.14-.23,13.2,13.2,0,0,1-1.79-2.45c-2.55-4.43,3.88-20.34,1.44-31.14s-13-6-13-6-2.15,28.22-11.3,47.22-.16,33.91-2.89,44.87c-1.34,5.5-15,17-15,17,6.35,30.87,29.92,52.46,29.92,52.46s17.82-29.43,30.24-32,22.31-10.06,40-23.89c0,0,24.67-13.23,33.56-14.39s27.2-11,22-17.32c-5.05-6.08-10.42,2.89-36.17,6.4,6.72-5,13.87-9.92,18.19-11.48C2082.05,1059,2100.77,1042.91,2093.16,1037Z"/><path d="M1965,1160.63l-3.15-2.88c-1-.91-24.48-22.71-31-54.34l-.42-2,1.58-1.35c6.15-5.19,13.19-12.48,13.85-15.19.87-3.48.3-7.77-.35-12.74-1.18-8.93-2.65-20,3.48-32.82,8.75-18.17,11-45.69,11-46l.16-2.08,1.91-.85c.65-.29,6.54-2.76,11.77-.14,2.13,1.06,4.92,3.42,6.09,8.54,1.45,6.42.19,13.86-.91,20.43-.58,3.4-1.45,8.54-.9,9.78a9.85,9.85,0,0,0,1.24,1.71,4,4,0,0,1,.51.64c1.82,2,4.13,3.18,6,3.09l.53,0,.12,0c10.2-1.64,28.45-18.59,37.66-29.63,19.12-23,27-25.44,31.64-24.95a8.33,8.33,0,0,1,6.66,4.77c3.89,7.41,0,11.74-5.91,18.31a148.67,148.67,0,0,0-19.47,26.31,219.6,219.6,0,0,0,33.66-26.85c7.47-7.33,12.67-6.66,15.72-4.8,4.42,2.67,5.89,9.38,4.49,14s-7.79,10.31-15.24,16.89c-3.32,2.92-6.75,6-9.53,8.75-4.65,4.57-9.36,9.16-12.8,12.48a118.64,118.64,0,0,0,24.87-12.81c6.22-4.05,11.13-7.26,17-2.65h0a7.93,7.93,0,0,1,3,7.86c-1.45,9-16.24,20.58-25.12,23.73l-.55.22c1.76-.6,3.32-1.19,4.73-1.71,6.17-2.3,11-4.12,15.32,1a7.31,7.31,0,0,1,1.13,7.62c-1.73,4.35-7,8-11,10.21a44.49,44.49,0,0,1-14.35,5.19c-6.68.87-25.17,10.16-32.09,13.86-17.24,13.52-27.7,21.69-41.18,24.38-7.93,1.62-21.35,19.48-27.93,30.35ZM1938.18,1104c5.13,21.94,19.26,39,25.45,45.57,5.54-8.5,19-27.53,30.14-29.8,11.42-2.28,20.55-9.14,38.49-23.21l.24-.19.26-.14c2.59-1.39,25.51-13.58,34.77-14.78,7-.9,18.26-7.2,19.78-11,.15-.38.12-.42,0-.58-.89-1.07-1.1-1.32-7.48,1.05a109.34,109.34,0,0,1-25.52,6.59l-13.39,1.83,10.82-8.1c8.81-6.6,15.07-10.51,19.11-12,7.38-2.62,19.69-12.86,20.56-18.25.13-.82-.11-1-.39-1.23h0c-1.72-1.34-2.4-1.25-8.92,3a125.65,125.65,0,0,1-30.72,15.12l-3.26,1.11-3.7-10.33,1.63-1.57c3.36-3.23,9.36-9,15.22-14.82,2.92-2.94,6.44-6,9.84-9,5.51-4.86,12.37-10.91,13.16-13.64.62-2.05-.13-5.22-1.41-6-.94-.57-3.39.08-7.18,3.81a233.48,233.48,0,0,1-25.44,21.4c-14.54,10.57-15.83,9.64-17.62,8.35a3.58,3.58,0,0,1-1.22-1.5l-3.64-4.11,1.22-2.17a157.78,157.78,0,0,1,22.39-31.11c6-6.66,6.41-7.53,4.92-10.36-.52-1-.94-1-1.19-1.07-1.9-.18-8.21,1.59-25.53,22.46-6.86,8.23-27.73,30-42.14,32.1a4.77,4.77,0,0,1-1.67,0c-4,0-8.21-2.1-11.39-5.75l-.43-.55a17.67,17.67,0,0,1-1.88-2.66c-1.83-3.19-1-7.9.06-14.43,1-5.92,2.14-12.64,1-17.71-.67-3-2-3.61-2.38-3.83a6.32,6.32,0,0,0-4-.27c-.74,7.33-3.55,29.75-11.42,46.08-5.23,10.89-4,20.45-2.85,28.87.71,5.44,1.39,10.58.21,15.33C1951.4,1091.87,1942.63,1100.09,1938.18,1104Z"/><path class="cls-4" d="M1881,2626.45c-14.55-2.22-35.36-3.53-55.91-9.78a111.6,111.6,0,0,1-14.88-5.51c-2.22-1-4.36-2.06-6.5-3.21a83.19,83.19,0,0,1-13.32-8.55c-16.2-12.5-29.11-31.65-34.12-61.66l-58.21,25s-19.24,52.87-21.87,113.8c-.25,4.52-.33,9.12-.33,13.73h232.93a106.31,106.31,0,0,0,.82-13.73C1909.65,2659,1905.87,2630.32,1881,2626.45Z"/><path d="M1881,2626.45c-14.55-2.22-35.36-3.53-55.91-9.78a111.6,111.6,0,0,1-14.88-5.51c-2.22-1-4.36-2.06-6.5-3.21a83.19,83.19,0,0,1-13.32-8.55c-16.2-12.5-29.11-31.65-34.12-61.66l-58.21,25s-8.19,25.66-10.82,86.59c-.25,4.52,4.29,23.26,4.29,27.86h164.48s53.6,7.4,53.6-.65C1909.65,2659,1905.87,2630.32,1881,2626.45Z"/><path d="M1908.83,2693.76H1675.9a3.5,3.5,0,0,1-3.5-3.5c0-5.25.11-9.8.33-13.92,2.62-60.73,21.88-114.27,22.08-114.81a3.54,3.54,0,0,1,1.91-2l58.21-25a3.49,3.49,0,0,1,4.83,2.64c4.41,26.39,15.14,45.84,32.81,59.47a79.53,79.53,0,0,0,12.79,8.21c2.26,1.22,4.31,2.23,6.31,3.12a108.39,108.39,0,0,0,14.45,5.35c15.1,4.59,30.7,6.52,43.23,8.07,4.37.54,8.49,1,12.22,1.61h0c20.36,3.16,31.57,22.17,31.57,53.53a107.46,107.46,0,0,1-.86,14.23A3.49,3.49,0,0,1,1908.83,2693.76Zm-229.42-7H1905.7c.21-2.36.45-6,.45-10.23,0-35.23-14-44.8-25.65-46.62-3.62-.55-7.69-1-12-1.59-12.8-1.58-28.73-3.54-44.38-8.3a116.26,116.26,0,0,1-15.32-5.68c-2.13-.94-4.33-2-6.7-3.3a86.82,86.82,0,0,1-13.83-8.89c-17.83-13.76-29.47-33.76-34.6-59.47l-52.77,22.66c-3,8.78-18.83,57.14-21.17,111.34C1679.55,2679.76,1679.45,2683.08,1679.41,2686.76Z"/><path class="cls-4" d="M1768.68,2613.69l6.82,11.84,32.31-10.36a83.89,83.89,0,0,1-13.32-8.55Z"/><path class="cls-4" d="M1794,2633.09l13.4,5.26,21.79-14.47a112.11,112.11,0,0,1-14.88-5.51Z"/><path class="cls-4" d="M1478.5,2639.53c-27.71-14.56-23.93-84.45-23.93-84.45l-32.72-43.66s-103.11,90.86-87.82,165.11a70.81,70.81,0,0,0,4.36,13.73h155.15a58.19,58.19,0,0,0,2.63-13.73C1497.24,2664.69,1495.11,2648.24,1478.5,2639.53Z"/><path d="M1333.39,2673a76.64,76.64,0,0,1-.84-9.33h-.06C1331.28,2660.86,1332.49,2668,1333.39,2673Z"/><path d="M1333.39,2673c.19,1.19.4,2.39.64,3.58C1334.42,2678.35,1334,2676.1,1333.39,2673Z"/><path d="M1478.5,2639.53c-27.71-14.56-23.93-84.45-23.93-84.45l-32.72-43.66s-91.61,80.74-89.3,152.2l152.44,3.76S1495.11,2648.24,1478.5,2639.53Z"/><path d="M1493.54,2693.76H1338.39a3.52,3.52,0,0,1-3.21-2.1,73.6,73.6,0,0,1-4.57-14.41c-6.56-31.83,6.49-69.91,38.79-113.21a406.83,406.83,0,0,1,50.13-55.24,3.5,3.5,0,0,1,5.12.52l32.72,43.66a3.56,3.56,0,0,1,.7,2.29,223.87,223.87,0,0,0,1.56,36.22c2.19,16.74,7.53,38.13,20.49,44.94h0c14.28,7.49,21.22,21.84,19.54,40.41a61.66,61.66,0,0,1-2.82,14.58A3.49,3.49,0,0,1,1493.54,2693.76Zm-152.81-7h150.2a58.69,58.69,0,0,0,1.75-10.49c1-11.07-.93-25.84-15.81-33.64h0c-27.54-14.46-26.25-76.39-25.85-86.44l-29.66-39.57c-16.26,15.18-97.21,94.6-83.9,159.21A66.66,66.66,0,0,0,1340.73,2686.76Z"/><path class="cls-4" d="M1369.76,2631.9v10.79c29.8-19.3,95.17-4.4,95.17-4.4C1424.74,2605.17,1369.76,2631.9,1369.76,2631.9Z"/><path class="cls-4" d="M1374.38,2610.83l-4.62,10.88c40.48-19.08,82.22,0,82.22,0C1422.74,2592.54,1374.38,2610.83,1374.38,2610.83Z"/><path class="cls-4" d="M1784.18,2468.05l-41.6-100.74s-119-787.85-109.36-876.26l-396.15-14.65c0,147.6,14.53,297.91,18.25,336s43.22,464.08,48.77,628.85c2.85,84.41,29.94,186.58,29.94,186.58s80.42-65,126-16.71l11.42-65.86-21.35-51.86s22.81-42.89,4.15-76.22-24.39-745.67-24.39-745.67l35.92-2.31,172.37,824.2v46.95s37.46,59.79,37.79,98l114.53-38.95-18.67-54.1Z"/><path class="cls-18" d="M1722.07,2371s-98.54-791.51-88.85-879.92l-396.15-14.65c0,147.6,40.38,297.62,44.11,335.75s33.75,459.22,39.31,624c2.84,84.41,20,152.74,20,152.74s74-26,119.49,22.28l11.42-65.86-21.35-51.86s22.81-42.89,4.15-76.22-24.39-745.67-24.39-745.67l60.81-9.27,147.48,831.16v46.95s37.46,59.79,37.79,98l88.71-53.7-8.3-46.91,27.87-69.69Z"/><path d="M1675.9,2641.85a3.54,3.54,0,0,1-2-.64,3.49,3.49,0,0,1-1.47-2.83c-.32-36.73-36.89-95.54-37.26-96.13a3.49,3.49,0,0,1-.53-1.86V2493.8l-171.67-820.87-29.59,1.9c.21,25.24,1.72,190.36,5.16,357,6.54,316.39,14.55,376.2,18.75,383.69,17.61,31.44.62,69.95-3.35,78.08l20.73,50.38a3.54,3.54,0,0,1,.22,1.93l-11.42,65.86a3.5,3.5,0,0,1-6,1.8c-17.79-18.85-43.39-21.87-76.09-9-25,9.88-44.93,25.83-45.13,26a3.5,3.5,0,0,1-5.58-1.83c-.27-1-27.23-103.52-30.06-187.35-5.87-174.25-48.33-624.33-48.75-628.63-11.95-122.26-18.27-238.58-18.27-336.38a3.5,3.5,0,0,1,3.63-3.5l396.15,14.65a3.52,3.52,0,0,1,3.35,3.88c-9.44,86.14,106,853.06,109.28,874.94l41.44,100.34a3.49,3.49,0,0,1,.22,1.89L1775.36,2545l18.38,53.27a3.5,3.5,0,0,1-2.18,4.46l-114.54,39A3.55,3.55,0,0,1,1675.9,2641.85Zm-34.29-102.45c4.59,7.47,34.73,57.71,37.57,94.14l106.8-36.32-17.52-50.78a3.51,3.51,0,0,1-.15-1.7l12.26-76.27-41.22-99.83a3.26,3.26,0,0,1-.23-.81c-4.8-31.77-116.07-769.84-109.69-873.41L1240.57,1480c.15,96.82,6.45,211.54,18.24,332.07.42,4.3,42.9,454.63,48.78,629.07,2.44,72.43,23.1,159.07,28.53,180.72a200.47,200.47,0,0,1,42.52-23.74c32.4-12.83,59.55-10.74,79,5.95l10.13-58.4-21-50.93a3.51,3.51,0,0,1,.15-3c.22-.41,21.68-41.63,4.18-72.87-12.09-21.59-17.77-296.6-19.64-387-3.72-180.19-5.18-358.6-5.19-360.38a3.5,3.5,0,0,1,3.27-3.53l35.93-2.3a3.49,3.49,0,0,1,3.65,2.78l172.36,824.19a3.53,3.53,0,0,1,.08.72Z"/><path class="cls-4" d="M1482.33,818.58c-25.7-1.33-53.65-1.09-83.36.3a281.79,281.79,0,0,0-62.31,10c-76.26,21.29-129.71,71.31-137.83,110.57-10.18,49.23,39.31,573.85,39.31,573.85s62.16,87.56,244.19,58.74c103.4-16.37,150.34-66.86,150.34-66.86s33.23-586.11-3.34-633.65C1602.74,837,1550.48,822.17,1482.33,818.58Z"/><path class="cls-4" d="M1482.33,818.58c-25.7-1.33-53.65-1.09-83.36.3a281.79,281.79,0,0,0-62.31,10c-76.26,21.29-129.71,71.31-137.83,110.57-10.18,49.23,46.61,539.74,46.61,539.74s54.86,103.4,236.89,74.58c103.4-16.37,150.34-48.59,150.34-48.59s33.23-586.11-3.34-633.65C1602.74,837,1550.48,822.17,1482.33,818.58Z"/><path d="M1412.66,1581.28c-56.47,0-96.42-12.36-122.19-24.67-38.67-18.46-54.53-40.38-55.19-41.31a3.55,3.55,0,0,1-.63-1.69c-2-21.45-49.42-525.71-39.24-574.89,4.29-20.76,20.1-43.48,44.53-64,26.27-22.05,59.39-39.08,95.78-49.24a285.62,285.62,0,0,1,63.09-10.11c31.58-1.47,59-1.57,83.7-.3h0c75.6,4,124.53,21.75,149.58,54.3,8.93,11.6,14.38,51.2,16.68,121.08,1.79,54.6,1.6,127.2-.57,215.79-3.69,150.78-12,297.65-12,299.11a3.56,3.56,0,0,1-.93,2.19c-.5.53-12.37,13.16-37.17,27.91-22.77,13.54-61.23,31.47-115.19,40A448.26,448.26,0,0,1,1412.66,1581.28ZM1241.53,1512c3,3.85,19,22.72,52.43,38.57,34.45,16.34,95,32.74,187.83,18,29.08-4.6,72.19-15.1,112.41-38.94,20.4-12.1,31.94-22.89,35-26,.83-15,8.46-154.52,12-297.59,6.15-251-4.58-319.31-14.66-332.41-23.74-30.83-71-47.7-144.41-51.58-24.51-1.26-51.67-1.16-83,.31a278.18,278.18,0,0,0-61.53,9.86c-77.91,21.75-127.88,71.82-135.34,107.89C1192.5,987.29,1239.11,1486.17,1241.53,1512Z"/><path class="cls-17" d="M1372.56,791.18c-26.11,10.22-15.1,77.41-15.1,77.41-.47-30.1,32.16-49.14,32.16-49.14S1398.68,781,1372.56,791.18Z"/><path class="cls-4" d="M1946,1087.12S1833.81,1194.3,1824.69,1187s-17.14,11-17.14,11L1632.36,877.07a25.34,25.34,0,0,0-3-5.56c-26.59-34.53-78.85-49.34-147-52.93,10.39,16.53,29.85,53.65,35.52,106.69,3.87,36.23,65.06,663.75,65.06,663.75,55.24-.31,67.84-31.89,67.84-31.89s4.49-189.09,2.68-369.07c52,76.2,122,166.44,150.93,147.9,48.7-31.16,197.08-162.37,197.08-162.37C1937.38,1152.57,1946,1087.12,1946,1087.12Z"/><path class="cls-19" d="M1946,1087.12S1833.81,1194.3,1824.69,1187s-17.14,11-17.14,11L1622.36,896.85a24.92,24.92,0,0,0-3-5.56c-26.58-34.53-68.84-69.12-137-72.71,10.39,16.53,29.85,53.65,35.52,106.69,3.87,36.23,78,642.92,78,642.92,55.25-.32,48.2-13,48.2-13s11.93-220.09,10.13-400.07c52,76.2,114,181.19,142.94,162.65,48.7-31.16,204.33-144.23,204.33-144.23C1937.38,1152.57,1946,1087.12,1946,1087.12Z"/><path d="M1582.91,1592.52a3.51,3.51,0,0,1-3.49-3.16c-.61-6.27-61.22-627.92-65.05-663.72-5.55-51.9-24.31-88.19-35-105.2a3.5,3.5,0,0,1,3.15-5.36c75.6,4,124.53,21.75,149.58,54.3a27.8,27.8,0,0,1,3.42,6.17l172.06,315.14c2.37-3.57,5.94-7.62,10.35-8.7a9.94,9.94,0,0,1,8.37,1.79c2.73-.46,14.47-5.91,63-49.19,27.74-24.71,54-49.75,54.23-50a3.5,3.5,0,0,1,5.89,3,89.57,89.57,0,0,0,3.65,34.11c7.45,23.92,24.07,40.26,49.41,48.57a3.51,3.51,0,0,1,1.23,6c-6.07,5.36-149.14,131.75-197.51,162.7a19.25,19.25,0,0,1-10.62,3c-14.56,0-34.57-13.89-60.67-42-22.12-23.85-48.31-57.6-77.92-100.43,1.49,174.54-2.75,355.87-2.79,357.72a3.53,3.53,0,0,1-.25,1.21c-.55,1.38-14.12,33.78-71.07,34.1Zm-94.14-770.06c11.21,19.29,27.42,54.38,32.56,102.43,3.69,34.5,60,611.89,64.75,660.58,46.09-1.32,59.29-25.11,61.19-29.12.29-12.8,4.39-195.86,2.66-368.26a3.5,3.5,0,0,1,6.39-2c72.57,106.37,125.84,159.93,146.15,146.93,43.2-27.65,167.15-136.11,192.21-158.15-30.39-12-43.06-34.28-48.33-51.37a98.27,98.27,0,0,1-4.24-27.87c-9.95,9.39-30.3,28.41-51,46.78-17,15.08-31,26.8-41.47,34.82-18.28,14-23.79,15.14-27.12,12.44a3.13,3.13,0,0,0-2.91-.88c-3.54.86-7.48,7.49-8.84,10.56a3.49,3.49,0,0,1-6.27.27L1629.29,878.74a3.18,3.18,0,0,1-.16-.32,21.89,21.89,0,0,0-2.57-4.77C1603.54,843.76,1558.43,827,1488.77,822.46ZM1946,1087.12h0Z"/><path class="cls-19" d="M1473.29,789.94l-9.74,28c41.68,21.65,54.3,107.38,54.3,107.38s10.43-35.09,23.15-43.46,27.1,19.71,27.1,19.71C1545.87,813.9,1473.29,789.94,1473.29,789.94Z"/><path d="M1517.85,928.78h-.25a3.5,3.5,0,0,1-3.21-3c-.13-.84-12.86-84.21-52.45-104.79a3.5,3.5,0,0,1-1.69-4.26l9.74-28a3.5,3.5,0,0,1,4.4-2.17c.77.25,19,6.39,40.17,23.54,19.5,15.79,45.21,44.31,56.93,90.51a3.5,3.5,0,0,1-6.51,2.46c-2.4-4.69-10.21-17.27-17.39-19.15a5.46,5.46,0,0,0-4.67.76c-9.55,6.29-18.91,32.11-21.72,41.53A3.49,3.49,0,0,1,1517.85,928.78Zm-50-112.51c16.92,10.07,31,31,41.81,62.29a287.19,287.19,0,0,1,9.2,33.06c4.37-11.41,11.62-27,20.25-32.73a12.47,12.47,0,0,1,10.3-1.68,22.54,22.54,0,0,1,9,5.37,159,159,0,0,0-48-66.79,145.1,145.1,0,0,0-35-21.29Z"/><path class="cls-4" d="M1367.19,889.34c-22.89-17.08-29.27-52-30.53-60.48-63.89,17.84-113,32.57-132.07,60-.35-.2-.7-.41-1.06-.59,0,0-.73,2-2.06,5.71a46,46,0,0,0-4.45,12.33c-26.5,73.63-125,348.38-126.32,366.07-7.42,103,44.46,478.35,44.46,478.35,10.74-32.37,87-44.41,94.42-29.64l-25.94-388.81c9.25-3.7,11.11-30,11.11-30l12.49-38.07c8.17,160.73,17.52,314.39,17.52,314.39s78.66,52.39,175.47,36.87c0,0,32.66-614.75,23.84-672.38C1424.07,943.09,1393.3,908.87,1367.19,889.34Z"/><path class="cls-19" d="M1216.45,896.22l.08-.24Z"/><polygon class="cls-19" points="1216.03 897.38 1216.03 897.38 1216.03 897.38 1216.03 897.38"/><path class="cls-19" d="M1216.29,896.65l.16-.43C1216.4,896.34,1216.35,896.48,1216.29,896.65Z"/><path class="cls-19" d="M1216,897.38Z"/><path class="cls-19" d="M1216,897.38c.9-4.37-2,3.86,0,0Z"/><polygon class="cls-19" points="1216.03 897.38 1216.03 897.38 1216.03 897.38 1216.03 897.38"/><path class="cls-19" d="M1367.19,889.34c-22.89-17.08-27.18-36.32-28.44-44.81C1274.87,862.37,1235.07,870,1216,897.38h0c-26.5,73.63-144,357.27-145.33,375-7.42,103,57.48,434.7,57.48,434.7,20.24-3.37,74-.76,81.4,14l-25.94-388.81c9.25-3.7,11.11-30,11.11-30l12.49-38.07c8.17,160.73,29.83,308.57,29.83,308.57s46.25,38.1,143.06,22.58c0,0,52.76-594.64,43.94-652.27C1424.07,943.09,1393.3,908.87,1367.19,889.34Z"/><path class="cls-19" d="M1216.53,896Z"/><polygon class="cls-19" points="1216.03 897.38 1216.03 897.38 1216.03 897.38 1216.03 897.38"/><path class="cls-19" d="M1216.29,896.65l-.26.73h0C1216.13,897.09,1216.22,896.86,1216.29,896.65Z"/><path d="M1115.16,1754.19h-.32a3.5,3.5,0,0,1-3.14-3c-.52-3.76-51.86-376.89-44.49-479.09,1.26-17.45,88.77-262.11,126.44-366.77a50.18,50.18,0,0,1,4.6-12.79l2-5.48a3.53,3.53,0,0,1,2-2.08,3.39,3.39,0,0,1,1-.22c20-26.28,65.74-40.62,132.48-59.25a3.5,3.5,0,0,1,4.4,2.86c1.43,9.61,7.73,42.19,29.16,58.19h0c26.09,19.5,56.12,52.8,57.39,54.21a3.54,3.54,0,0,1,.85,1.81c8.79,57.32-22.46,648-23.79,673.1a3.5,3.5,0,0,1-2.94,3.27c-50.73,8.13-96.39-2.46-125.76-12.77-31.82-11.17-51.4-24.1-52.21-24.64a3.5,3.5,0,0,1-1.56-2.7c-.09-1.48-8.72-143.6-16.56-295.66l-6.5,19.81c-.39,5.17-2.45,24.84-10.93,31.19l25.81,386.66a3.5,3.5,0,0,1-6.62,1.81c-1.36-2.69-9.18-5.12-23.16-4.09-27.1,2-58.76,15-64.82,33.25A3.49,3.49,0,0,1,1115.16,1754.19Zm90.69-862.1-1.09,3a3.49,3.49,0,0,1-.2.44,42.94,42.94,0,0,0-4.11,11.41,4.27,4.27,0,0,1-.13.48C1140,1075.08,1075.17,1259,1074.19,1272.59c-6.62,91.84,34.73,405.67,43,467.15,13.9-17.85,45.81-26.72,65.58-28.18,6.36-.47,16-.56,22.8,2.11l-25.45-381.2a3.5,3.5,0,0,1,2.2-3.48c4.91-2,8.22-17.25,8.91-27a3.47,3.47,0,0,1,.17-.85l12.49-38.07a3.5,3.5,0,0,1,6.82.91c7.61,149.65,16.34,294.92,17.41,312.58a261.22,261.22,0,0,0,49.42,23c28,9.81,71.25,19.89,119.33,12.81,2.38-45.23,31.73-607.46,23.86-667.79-4.75-5.21-32.3-35-55.66-52.51h0c-21.15-15.78-28.79-45.49-31.24-58.85-64.95,18.19-108.86,32.32-126.38,57.53A3.58,3.58,0,0,1,1205.85,892.09Z"/><path class="cls-19" d="M1387.3,892.45c-22-17-43-64.9-14.74-101.27,0,0-54,1-67.45,56.21s57.22,98.6,57.22,98.6,11.56-29.83,27.07-29.8,34.66,26.91,34.66,26.91S1409.31,909.43,1387.3,892.45Z"/><path d="M1362.33,949.49a3.56,3.56,0,0,1-1.84-.52,174.8,174.8,0,0,1-34.4-29.22c-21.71-24.11-30.14-49.42-24.38-73.18,7.25-29.88,26.11-44.32,40.66-51.17a81,81,0,0,1,30.13-7.72,3.42,3.42,0,0,1,3.19,1.94,3.47,3.47,0,0,1-.36,3.71c-13,16.73-13.88,34.69-12.33,46.82,2.84,22.32,15.32,41,26.43,49.53,22.47,17.33,37.22,50.61,37.83,52a3.5,3.5,0,0,1-6,3.43c-5-7.07-20.6-25.42-31.82-25.44h0c-6.43,0-12.46,7.22-16.39,13.29a89.26,89.26,0,0,0-7.39,14.27,3.49,3.49,0,0,1-2.15,2A3.28,3.28,0,0,1,1362.33,949.49Zm3-154a78.35,78.35,0,0,0-20.22,6.34c-19,9-31.32,24.64-36.6,46.37-11,45.31,38.57,83.1,52.24,92.53,4-8.79,14.39-28.06,28.62-28.06h0c5.37,0,11.38,2.59,17.95,7.67-5.91-8.9-13.49-18.43-22.19-25.14-12.26-9.45-26-29.87-29.11-54.18C1354,824.5,1357.15,808.91,1365.33,795.51Z"/><path class="cls-4" d="M1528.83,603c-.7-21-8.08-39.9-19.34-52.86,0,0,21.46-10,18.69-40.6s-37.61-38-57.16-29.75-28.27,4.47-33.58-1.91-33.37-13.81-54.19,7-10,46.34-57.38,41c0,0-6.37,2.76-3.4,15.09s32.94,120.92,32.3,193.6-1,102.94-1,102.94,42.71,26.61,121.82-5.6V731.86s52.51.7,56-28.72,0-44.8,0-44.8,20.3-11.91,21.7-19.6S1529.53,624,1528.83,603Z"/><path d="M1401.83,851.48c-31.74,0-48.77-10.24-49.88-10.94l-1.68-1,0-2c0-.3.34-31.09,1-102.93.38-43.44-10-106.31-30.71-186.87-.7-2.73-1.21-4.72-1.49-5.88-3.62-15,5-19,5.4-19.12l.86-.38.93.11c29.92,3.36,34.21-5.53,40.72-19,3.18-6.57,6.78-14,13.79-21a49.29,49.29,0,0,1,37.41-14.68c9.4.42,18.42,3.67,21.94,7.9,2.48,3,8.29,9.93,29.54.92,13.17-5.58,31.18-4.19,43.78,3.37,7.52,4.51,16.78,13.25,18.23,29.29,1.53,17-4.08,28-9.06,34.28a39.09,39.09,0,0,1-7.88,7.52c10.58,13.74,17,32.4,17.6,51.87.37,11.07,8.76,17.87,15.5,23.34,5.3,4.3,9.87,8,8.94,13.11-1.4,7.67-15.29,17-21.27,20.72.86,5.58,2.37,20.23-.4,43.47-3.3,27.77-43.56,31.31-56,31.74v99l-2.18.89C1446.51,847.6,1421.38,851.48,1401.83,851.48Zm-44.51-16c3.69,1.85,13.41,6.06,28.65,7.94,17.94,2.21,47.33,1.56,86.15-13.84V728.31l3.54.05c.51,0,49.41.31,52.49-25.63,3.38-28.31.1-43.47.06-43.61l-.56-2.5,2.2-1.29c9.1-5.35,19.35-13.45,20-17.21,0-1.17-4-4.46-6.46-6.42-7.43-6-17.61-14.29-18.09-28.55-.65-19.44-7.38-37.91-18.48-50.68l-3-3.51,4.21-2c.77-.37,19.19-9.49,16.68-37.12A30,30,0,0,0,1509.84,486c-10.81-6.48-26.21-7.68-37.45-2.92-17.76,7.53-29.72,6.61-37.64-2.89-1.62-1.94-8.1-5-16.88-5.39a42.37,42.37,0,0,0-32.15,12.64c-6.18,6.18-9.36,12.76-12.44,19.12-6.87,14.2-12.81,26.48-46.46,23-1,1-2.59,3.83-1,10.65.28,1.14.78,3.1,1.47,5.78,20.91,81.14,31.32,144.62,30.93,188.67C1357.73,796,1357.4,827.45,1357.32,835.5Z"/><path d="M1471,479.82c-19.55,8.29-28.27,4.47-33.58-1.91s-33.37-13.81-54.19,7-10,46.34-57.38,41c0,0-6.37,2.76-3.4,15.09s32.94,120.92,32.3,193.6c0,0,75.64-54.56,82.77-62.06s15.72-22.85,0-22.85S1407,638,1413.28,614.56s28.25-17.73,34.86-10.21S1453,640.1,1475.79,632s-1.8-72.43-8.71-77.24.6-9,12.32-4.58,30.09,0,30.09,0,21.46-10,18.69-40.6S1490.57,471.54,1471,479.82Z"/><path d="M1510.24,597.29c-2.92,0-5.28,4.2-5.28,9.38s2.36,9.39,5.28,9.39,5.28-4.2,5.28-9.39S1513.15,597.29,1510.24,597.29Z"/><path d="M1518.83,685.74c-3.39,0-8.63-1-14.8-5.68-4.58-3.46-7.36-9.45-8.27-17.81a55.39,55.39,0,0,1-.07-11,3.5,3.5,0,1,1,7,.79c-.52,4.68-.52,17.82,5.61,22.46,7.29,5.5,12.17,4.12,12.38,4.06a3.46,3.46,0,0,1,4.43,2.14,3.54,3.54,0,0,1-2.17,4.48A12.69,12.69,0,0,1,1518.83,685.74Z"/><path class="cls-4" d="M1475.62,731.86l-29.85-6.21S1460.72,732.92,1475.62,731.86Z"/><path d="M1472.58,735.46c-14.45,0-27.74-6.37-28.34-6.67l-25.31-12.3L1501,733.56l-25.13,1.79C1474.77,735.43,1473.67,735.46,1472.58,735.46Z"/><path d="M1207.24,1267.71A3.51,3.51,0,0,1,1204,1263c.37-1,36.63-94.78,54.5-137.27,17.44-41.47,0-133.35-.21-134.27a3.5,3.5,0,1,1,6.87-1.33c.75,3.85,18,94.89-.21,138.31-17.83,42.4-54.05,136.14-54.42,137.08A3.49,3.49,0,0,1,1207.24,1267.71Z"/><path d="M1653.43,1191.56a3.5,3.5,0,0,1-3.5-3.36c-.42-10.27-1.81-27.89-3.41-48.28-5.88-74.83-7.79-109.33-3.54-115.94a5.66,5.66,0,0,1,5.5-2.83c3.4.4,7.71,3.41,16.15,22.61,4.4,10,7.83,19.73,8,20.14a3.5,3.5,0,1,1-6.61,2.33c-6.12-17.4-13.66-33.36-17.49-37.33-.69,3-1.42,12,0,39.12,1.1,21.55,3.18,48,5,71.35,1.61,20.46,3,38.14,3.43,48.54a3.5,3.5,0,0,1-3.35,3.64Z"/><path class="cls-20" d="M2544.43,2189.28h-85.89c-60.08,0-152.68,171-152.68,235.44,0,64.86,93,232.2,152.68,232.2h85.89c75.62,0,135.47-22.85,177.93-68,41.29-43.94,62.22-99.2,62.22-164.25,0-64.63-20.68-120.16-61.5-165.1C2680.62,2213,2620.51,2189.28,2544.43,2189.28Z"/><path d="M2544.43,2660.42h-85.89c-15,0-32.35-9.48-51.49-28.16-16.49-16.09-33.86-38.67-50.22-65.29-32.58-53-54.47-110.15-54.47-142.25,0-31.62,22.34-90.71,54.32-143.69,16.37-27.13,33.72-50.13,50.19-66.5,19.18-19.08,36.56-28.75,51.67-28.75h85.89c77.11,0,138.08,24,181.24,71.49,41.42,45.58,62.41,101.92,62.41,167.45,0,66-21.25,122-63.16,166.64C2681.78,2637.18,2621.06,2660.42,2544.43,2660.42Zm-85.89-467.64c-25.32,0-61.16,34.34-95.87,91.86-31.39,52-53.31,109.61-53.31,140.08s22,87.42,53.43,138.59c34.69,56.42,70.48,90.11,95.75,90.11h85.89c74.62,0,133.63-22.49,175.39-66.85,40.65-43.27,61.26-97.72,61.26-161.85,0-63.74-20.38-118.49-60.59-162.74-41.77-45.92-101-69.2-176.06-69.2Z"/><path class="cls-20" d="M3097,576.84C2974,476.7,2803,425.93,2588.8,425.93c-205.81,0-376.54,49.34-507.46,146.65-136.65,101.56-207.16,237.2-209.57,403.15l-1,66.83h425.81V976.69c0-60.71,22.72-105.75,71.5-141.77,53.58-39.58,127.84-59.65,220.69-59.65,93.39,0,163.72,21,209,62.45,44.25,40.53,65.76,96.76,65.76,171.91,0,79-36.54,152.55-111.7,224.79l-206.36,180-1.39,1.25c-89.07,82.25-147.13,156.73-177.49,227.68-30.06,70.27-45.78,160.78-48.06,276.73l-1.33,67.18h426.16v-65.88c0-117.2,30.62-203.33,93.62-263.26l171.2-143.58,1.41-1.22c185-164.32,278.78-336.55,278.78-511.91C3288.4,823.15,3224,680.3,3097,576.84Z"/><path d="M2746.89,1990.77H2313.66l1.4-70.75c2.29-116.41,18.11-207.36,48.34-278,30.56-71.41,88.89-146.28,178.33-228.87l1.43-1.29,206.34-180c74.39-71.54,110.56-144.23,110.56-222.21,0-74.11-21.14-129.5-64.62-169.33-44.63-40.82-114.15-61.53-206.64-61.53-92.09,0-165.64,19.84-218.61,59-47.81,35.3-70.08,79.45-70.08,139v69.37H1867.25l1-70.38c2.43-167.09,73.41-303.66,211-405.91,131.54-97.77,303-147.34,509.55-147.34,215,0,386.76,51,510.39,151.69h0C3227.06,678.28,3291.9,822,3291.9,1001.42c0,176.4-94.19,349.51-280,514.53l-1.45,1.25-171.15,143.54c-62.21,59.24-92.45,144.5-92.45,260.65Zm-426.09-7h419.09v-62.38c0-118.22,31-205.17,94.7-265.8l.17-.14L3006,1511.87l1.37-1.19c184.17-163.6,277.57-335,277.57-509.26,0-177.17-64-319.11-190.13-421.87h0c-122.35-99.61-292.58-150.12-506-150.12-205,0-375.07,49.11-505.37,146C1947.7,676.27,1877.66,811,1875.27,975.78l-.92,63.28h418.76V976.69c0-61.91,23.17-107.85,72.92-144.58,54.2-40,129.15-60.34,222.77-60.34,94.29,0,165.4,21.32,211.36,63.37,45,41.23,66.9,98.31,66.9,174.49,0,80-36.89,154.37-112.77,227.32l-.13.11-206.36,180-1.35,1.21c-88.67,81.88-146.45,156-176.61,226.46-29.88,69.83-45.51,159.92-47.79,275.42Z"/><path class="cls-5" d="M2458.54,2189.28c-76.33,0-136.3,23.82-178.26,70.8-40,44.8-60.31,100.19-60.31,164.64,0,64.86,20.54,120,61.06,163.85,41.92,45.35,101.64,68.35,177.51,68.35,75.62,0,135.47-22.85,177.93-68,41.28-43.94,62.22-99.2,62.22-164.25,0-64.63-20.68-120.16-61.5-165.1C2594.72,2213,2534.62,2189.28,2458.54,2189.28Z"/><path class="cls-5" d="M3011.09,576.84c-123-100.14-294-150.91-508.18-150.91-205.81,0-376.55,49.34-507.47,146.65-136.64,101.56-207.15,237.2-209.56,403.15l-1,66.83h425.81V976.69c0-60.71,22.71-105.75,71.5-141.77,53.58-39.58,127.83-59.65,220.69-59.65,93.38,0,163.71,21,209,62.45,44.25,40.53,65.75,96.76,65.75,171.91,0,79-36.54,152.55-111.69,224.79l-206.36,180-1.39,1.25c-89.08,82.25-147.13,156.73-177.49,227.68-30.06,70.27-45.78,160.78-48.07,276.73l-1.32,67.18H2657.5v-65.88c0-117.2,30.62-203.33,93.61-263.26l171.2-143.58,1.42-1.22c185-164.32,278.78-336.55,278.78-511.91C3202.51,823.15,3138.11,680.3,3011.09,576.84Z"/><path d="M2458.54,2660.42c-76.89,0-137.47-23.38-180.08-69.48-41.13-44.52-62-100.45-62-166.22,0-65.33,20.59-121.51,61.2-167,42.65-47.75,103.5-72,180.87-72,77.1,0,138.08,24,181.24,71.49,41.41,45.58,62.41,101.92,62.41,167.45,0,66-21.25,122-63.17,166.64C2595.89,2637.18,2535.17,2660.42,2458.54,2660.42Zm0-467.64c-75.29,0-134.39,23.43-175.65,69.63-39.43,44.14-59.42,98.75-59.42,162.31,0,64,20.23,118.28,60.14,161.47,41.22,44.61,100.08,67.23,174.93,67.23,74.62,0,133.63-22.49,175.38-66.85,40.66-43.27,61.27-97.72,61.27-161.85,0-63.74-20.39-118.49-60.59-162.74C2592.83,2216.06,2533.59,2192.78,2458.54,2192.78Z"/><path d="M2661,1990.77H2227.77l1.39-70.75c2.3-116.41,18.11-207.36,48.35-278,30.56-71.41,88.89-146.28,178.33-228.87l1.42-1.28,206.34-180c74.39-71.54,110.56-144.23,110.56-222.21,0-74.11-21.13-129.5-64.61-169.33-44.63-40.82-114.16-61.53-206.64-61.53-92.09,0-165.64,19.84-218.61,59-47.81,35.3-70.08,79.45-70.08,139v69.37H1781.36l1-70.38c2.42-167.09,73.41-303.66,211-405.91,131.53-97.77,303-147.34,509.55-147.34,215,0,386.76,51,510.39,151.69h0C3141.17,678.28,3206,822,3206,1001.42c0,176.4-94.19,349.51-280,514.53l-1.45,1.25-171.15,143.54c-62.21,59.24-92.45,144.5-92.45,260.65Zm-426.09-7H2654v-62.38c0-118.22,31-205.16,94.7-265.79l.16-.15,171.2-143.58,1.38-1.19c184.17-163.6,277.57-335,277.57-509.26,0-177.17-64-319.11-190.13-421.87h0c-122.35-99.61-292.58-150.12-506-150.12-205,0-375.07,49.11-505.38,146C1861.8,676.27,1791.77,811,1789.38,975.78l-.92,63.28h418.76V976.69c0-61.91,23.17-107.85,72.92-144.58,54.2-40,129.15-60.34,222.77-60.34,94.29,0,165.4,21.32,211.36,63.37,45,41.23,66.89,98.31,66.89,174.49,0,80-36.88,154.37-112.77,227.32l-.12.11-206.36,180-1.35,1.21c-88.67,81.88-146.45,156-176.61,226.46-29.88,69.83-45.51,159.92-47.79,275.42Z"/><polygon class="cls-4" points="3441.64 1452.37 3299.03 1443.17 3298.01 1479.62 3367.15 2571.27 3490.86 2571.27 3510.42 1740.12 3688 2586.66 3815.51 2563.57 3656.41 1460.63 3441.64 1452.37"/><polygon class="cls-21" points="3441.64 1452.37 3407.71 1479.63 3298.01 1479.62 3385.52 2526.31 3490.86 2571.27 3510.42 1740.12 3519.94 1710.77 3688 2586.66 3786.25 2537.71 3656.41 1460.63 3441.64 1452.37"/><path d="M3688,2590.17a3.51,3.51,0,0,1-3.42-2.79L3513.2,1770.46l-18.84,800.89a3.51,3.51,0,0,1-3.5,3.42H3367.15a3.51,3.51,0,0,1-3.5-3.28l-69.14-1091.65c0-.1,0-.21,0-.31l1-36.46a3.52,3.52,0,0,1,3.73-3.4l142.56,9.2,214.72,8.26a3.5,3.5,0,0,1,3.33,3L3819,2563.07a3.49,3.49,0,0,1-2.84,3.94l-127.52,23.1A3.36,3.36,0,0,1,3688,2590.17Zm-177.57-853.55a3.5,3.5,0,0,1,3.42,2.79l176.88,843.2,120.85-21.88L3653.36,1464l-211.86-8.15h-.09l-139-9-.92,32.67,68.92,1088.21h117L3506.92,1740a3.49,3.49,0,0,1,3.18-3.4Z"/><path class="cls-4" d="M3815.51,2563.57,3688,2586.66s-.28,33.17,4.33,47.16a181,181,0,0,0,15,34.13s82.71,16.38,93.72,24.29c82,58.94,153.16,17,153.16,17C3959.14,2678.64,3815.51,2563.57,3815.51,2563.57Z"/><path d="M3799.61,2586.66H3688s-.28,33.17,4.33,47.16a181,181,0,0,0,15,34.13s82.71,16.38,93.72,24.29c82,58.94,153.16,17,153.16,17C3959.14,2678.64,3799.61,2586.66,3799.61,2586.66Z"/><path d="M3893.12,2727.19c-25.32,0-58.72-6.68-94.08-32.1-7.62-5.48-59.4-17.18-92.35-23.71a3.52,3.52,0,0,1-2.31-1.61,182.69,182.69,0,0,1-15.37-34.86c-4.74-14.37-4.52-46.9-4.51-48.27a3.49,3.49,0,0,1,2.87-3.42l127.52-23.09a3.5,3.5,0,0,1,2.81.71c.36.29,36.41,29.21,71.39,61.52,20.6,19,36.82,35.49,48.22,48.95,15.24,18,21.72,30.23,20.4,38.49a3.51,3.51,0,0,1-1.68,2.47c-.76.44-18.77,10.9-47.24,14.06A142.19,142.19,0,0,1,3893.12,2727.19Zm-183.51-62.37c13.66,2.73,82.73,16.83,93.52,24.58,41.31,29.7,79.66,32.72,104.56,30a128.22,128.22,0,0,0,43.17-12.3c-.44-6.94-9.27-26.74-66.52-79.61-31.16-28.77-63.16-54.85-69.78-60.2l-123.06,22.29c.06,8.28.55,32.2,4.15,43.13A185.87,185.87,0,0,0,3709.61,2664.82Z"/><path class="cls-4" d="M3367.15,2571.27c-107.54,20.89-130.92,96.67-130.92,96.67,47.29,12.23,176.31-8.75,197.51-14.45l51.87-3.6c14.68-10.6,5.25-78.62,5.25-78.62Z"/><path d="M3373.1,2590.65c-107.54,20.9-136.87,77.29-136.87,77.29,47.29,12.23,176.31-8.75,197.51-14.45l51.87-3.6c14.68-10.6,5.25-78.62,5.25-78.62Z"/><path d="M3277,2675.18c-16.5,0-31.07-1.1-41.69-3.85a3.5,3.5,0,0,1-2.47-4.42c.25-.8,6.3-19.93,25.87-41.8,18-20.07,51.22-46.3,107.73-57.28a3.71,3.71,0,0,1,.67-.06h123.71a3.5,3.5,0,0,1,3.47,3c0,.17,2.39,17.4,2.91,35.71.74,25.92-2.39,41-9.58,46.22a3.47,3.47,0,0,1-1.8.66l-51.55,3.57C3417.63,2661.33,3335.33,2675.18,3277,2675.18Zm-36.13-9.75c25.66,5.24,70,2.16,103.48-1.47,39.89-4.33,77.61-10.94,88.44-13.85a3.76,3.76,0,0,1,.67-.12l50.75-3.52c8.31-8,6.73-46.64,3.54-71.7H3367.48c-30,5.87-72.15,20.14-103.25,54.72C3250.38,2644.88,3243.55,2659.05,3240.91,2665.43Z"/><path class="cls-4" d="M3711.09,917.18a17.8,17.8,0,0,0-13-15.78l-140.34-38.47-81.92,38-18-11.18-4.56-29.85L3352.71,888a22.23,22.23,0,0,1-25.34-10.47l-56.6-100.13a12.15,12.15,0,0,1,2.8-15.81l75-59.89c13.87-47.91,138.3-131.83,138.3-131.83-97.78,12.6-277.76,91.21-333.15,116.18a118.51,118.51,0,0,0-14.37,6.54l-2.29,1.06a2.17,2.17,0,0,0-.07.24l-.28.16a27.84,27.84,0,0,0-14,26.1c7.48,109.66,130,324.32,158,372.12-.45,16-.17,32,.94,47.63l.29,150.92-1.29,220,410.11-10.52-25.59-230.63,60.18-170.28Z"/><path class="cls-22" d="M3698.05,901.4l-140.34-38.47-70.88,21.57-29,5.28-4.56-29.85L3352.71,888a22.23,22.23,0,0,1-25.34-10.47l-75.89-92.91a12.15,12.15,0,0,1,2.8-15.8l94.25-67.12c13.87-47.91,138.3-131.83,138.3-131.83C3389.05,582.5,3224.38,669,3169,694a117,117,0,0,0-14.37,6.55l-2.29,1.06v0a28.71,28.71,0,0,0-14.33,26.5c7.48,109.65,114.69,316.42,142.69,364.22-.45,16-.17,32,.94,47.63l22,338.78,377.3,21.43-32.91-224.93,61.15-197.35,1.87-160.68A17.8,17.8,0,0,0,3698.05,901.4Z"/><path class="cls-22" d="M3152.33,701.58Z"/><path class="cls-22" d="M3152.33,701.58h0S3152.35,701.56,3152.33,701.58Z"/><path d="M3280.63,1514.33a3.5,3.5,0,0,1-3.5-3.52l1.29-220-.29-150.77c-1.06-15-1.38-30.72-1-46.86-14.82-25.32-51.78-90-86.34-162.25-44.33-92.74-68.43-163.57-71.63-210.53a31.52,31.52,0,0,1,15.22-29.08,3.56,3.56,0,0,1,1.12-.83l2.21-1a121.54,121.54,0,0,1,14.6-6.65c53.6-24.17,235.58-103.73,334-116.41a3.5,3.5,0,0,1,2.4,6.37c-1.23.83-123.54,83.75-136.9,129.9a3.48,3.48,0,0,1-1.18,1.76l-75,59.9a8.67,8.67,0,0,0-2,11.25l0,.09,56.61,100.14a18.69,18.69,0,0,0,21.35,8.82l100.55-28.1a3.5,3.5,0,0,1,4.4,2.85l4.32,28.25,15,9.33,80.2-37.24a3.6,3.6,0,0,1,2.4-.2L3699,898a21.32,21.32,0,0,1,15.6,18.88l14.24,182.22a3.36,3.36,0,0,1-.19,1.44l-59.91,169.53,25.5,229.83a3.5,3.5,0,0,1-3.39,3.88l-410.11,10.52ZM3139.37,696.45a3.26,3.26,0,0,1-.7.52l-.26.15A24.44,24.44,0,0,0,3126.19,720c3.14,46.07,27,116,71,208,34.84,72.88,72.14,138,86.56,162.6a3.47,3.47,0,0,1,.48,1.86c-.46,16.3-.14,32.21.94,47.29v.24l.29,150.92-1.27,216.4,402.69-10.33-25.17-226.84a3.72,3.72,0,0,1,.18-1.55l59.94-169.58L3707.6,917.45h0a14.31,14.31,0,0,0-10.47-12.67L3558,866.64l-80.75,37.49a3.5,3.5,0,0,1-3.32-.2l-18-11.18a3.51,3.51,0,0,1-1.61-2.44l-4-25.94-96.74,27a25.7,25.7,0,0,1-29.34-12.12l-56.57-100.09a15.68,15.68,0,0,1,3.63-20.3l74.11-59.22c12.73-39.95,95-101.33,126.9-124-100.1,17.89-266.62,90.75-317.27,113.59l-.21.08a116,116,0,0,0-13.95,6.36l-.19.09Z"/><path class="cls-4" d="M3348.53,701.73l98.61-74.54c13.88-47.91,39.69-57.29,39.69-57.29-48.85,6.29-118.2,29.07-182.3,53.4C3300.32,656.06,3311.15,671.79,3348.53,701.73Z"/><path d="M3348.46,706.16l-2.12-1.7c-37.31-29.88-49.76-46.7-45.28-81.61l.27-2.08,2-.75c79.43-30.14,141-48.18,183.1-53.6l31.34-4-29.7,10.8s-6.11,2.36-13.72,10.22c-7.06,7.31-16.93,21-23.81,44.76l-.32,1.11Zm-40.7-80.34c-3.13,28,5.34,42.75,40.83,71.47l95.52-72.19c7.81-26.3,19.16-41.21,28-49.38C3431.83,582.94,3376.66,599.75,3307.76,625.82Z"/><path class="cls-4" d="M3717.14,914.28c-4.93-6.77,9.06,66.75,1.35,70-38.68,16.22-77.46,65.09-77.46,65.09l151.14,196.13L3742.1,1351.3c37.23,16.88,53,30.71,65.72,62,49.24-46.68,91.51-94.5,109.31-115.19,2.38-2.57,4.54-5.13,6.48-7.6,1.65-1.94,2.52-3,2.52-3s0-.18,0-.26a119.74,119.74,0,0,0,9.74-15.25C3902.32,1171.1,3751.58,961.44,3717.14,914.28Z"/><path class="cls-22" d="M3717.14,914.28a32,32,0,0,0-20.58-12.7C3596,884.81,3641,1049.35,3641,1049.35l158.65,180.12L3742.1,1351.3c37.23,16.88,53,30.71,65.72,62,49.24-46.68,76.3-100.13,94.09-120.81,2.38-2.58,4.54-5.14,6.48-7.6l2.53-3c0-.1,0-.18,0-.26a120.58,120.58,0,0,0,9.74-15.25C3887.1,1165.48,3751.58,961.44,3717.14,914.28Z"/><path d="M3807.82,1416.75a3.65,3.65,0,0,1-.74-.08,3.48,3.48,0,0,1-2.5-2.1c-12.1-29.61-26.44-43.09-63.93-60.09a3.51,3.51,0,0,1-1.84-2,3.47,3.47,0,0,1,.13-2.7l49.15-103.88-149.84-194.43,5.55-4.27,151.14,196.12a3.52,3.52,0,0,1,.39,3.64l-48.55,102.61c34.69,16.14,50.2,30.39,62.28,57.64,48.33-46.19,89.64-93.11,105.42-111.45l.08-.09c2.15-2.33,4.27-4.82,6.3-7.39l.08-.1,1.9-2.25a4.07,4.07,0,0,1,.45-.82,125,125,0,0,0,8.76-13.49c-34.6-101.73-187.34-313.68-217.74-355.3-3.89-5.34-26.87-15.15-35.44-16.59l1.16-6.9c8.29,1.39,34.08,11.32,39.94,19.36,30.64,42,185.24,256.5,219.2,358.65a3.52,3.52,0,0,1-.2,2.68,119.76,119.76,0,0,1-9.51,15,3.57,3.57,0,0,1-.64,1.16l-2.5,3c-2.12,2.68-4.33,5.27-6.58,7.71-16.27,18.91-59.43,67.92-109.52,115.4A3.49,3.49,0,0,1,3807.82,1416.75Z"/><path class="cls-4" d="M3742.1,1351.29l-77.55,128.55-.3-.22s-8.76,13,25.3,70.45c-2.8,26.14,12,10.4,35.22,21.14a3.66,3.66,0,0,0,1.91.39c8.26,1.62,40.54,7.31,39.77-2.53,0,0,1.82-48.23-7.34-53.35-7.23-4-15.55,18.09-18.75,27.64-2.9-1.07-5.66-1.9-8-2.52-.7-22.21-4.33-49.49-5.34-56.69,26-17.24,41-31.05,80.82-70.9C3795.05,1382,3779.33,1368.18,3742.1,1351.29Z"/><path d="M3752.82,1578.22c-8.1,0-17.89-1.45-26.42-3.11a7.3,7.3,0,0,1-3.1-.72c-8.21-3.8-15.32-4-21-4.21s-10.39-.32-13.58-4c-2.6-3-3.44-7.62-2.73-15.34-32.83-55.69-26.26-70.73-24.6-73.19l2-2.94.15.1,77.23-128,2.83,1.29c39,17.68,54.76,32.59,67.51,63.82l.88,2.15-1.64,1.65c-39.59,39.59-54.53,53.34-79.53,70.11,1.27,9.41,4.17,32.38,5,52.31.82.24,1.64.5,2.45.76,5.54-15.62,11-24.58,16.39-26.65a7.13,7.13,0,0,1,6.23.41c3.45,1.92,7.58,7.24,8.9,31.46.65,12,.3,23.3.24,24.9a7.08,7.08,0,0,1-2.43,5.75C3764.71,1577.29,3759.3,1578.22,3752.82,1578.22Zm-25.88-10.15.41.1c24.38,4.77,34.65,2.88,35.61,1.29v-.11l0-.21v-.2c0-.12.44-12.08-.23-24.48-1.26-23.16-5.15-25.59-5.32-25.68a.19.19,0,0,0-.09,0h0c-1.58,0-7.14,6.42-13.61,25.73l-1.14,3.41-3.38-1.24c-2.47-.9-5.07-1.72-7.72-2.42l-2.52-.67-.09-2.6c-.69-21.9-4.24-48.64-5.31-56.32l-.3-2.18,1.84-1.22c25.26-16.77,39.72-29.92,78.62-68.8-11.6-27.39-25.7-40.66-60.2-56.65l-76.54,126.87c-.3,1.76-.48,5.5,1.1,12.18,2.16,9.16,8.17,25.87,24.52,53.46l.59,1-.12,1.15c-.8,7.43.07,10.17.94,11.17,1.17,1.35,4.41,1.45,8.51,1.58,6,.19,14.26.44,23.76,4.85a1,1,0,0,0,.21.07Z"/><rect x="3241.82" y="1039.76" width="100.73" height="7" transform="translate(1524.99 4010.4) rotate(-76.81)"/><path d="M3581.75,577.53s31.36-10.59,16.87-24.34-45,3.45-45,3.45-6.54-10.81-45.2-20-51.82,10.79-51.82,10.79S3428,527.85,3400.53,534s3.95,40.33,3.95,40.33-35.46-19.21-41.92,2.92S3409,616.65,3409,616.65s-15.5,6.62-13.58,28.09,23.41,36.94,23.41,36.94c79-29,132.25,81.21,132.25,81.21s48.84,4.49,58.92-66.85c7.84-55.55-18.75-89.81-18.75-89.81s22.89,5.54,31.82-8.59S3581.75,577.53,3581.75,577.53Z"/><path class="cls-4" d="M3554.72,708.27c-17,10.41-23-10.58-19.71-23.32s8.61-41.63,8.61-41.63-21.64,8.94-20.13-18.79c-11.36,4.94-60.4,19.32-107.19-6.64-4.88,21.32-7.05,47.94-7.6,75.7-.47,23.42-5.88,67.84-1,90.9s23.31,23.81,43.41,31.79c1.19,12.07,2.6,65.41-.37,92.67,9.77,10.83,100.91-24.37,101.9-36.56,2.77-34-11.44-97-4-130.31Z"/><path d="M3458.34,915.36c-5.23,0-8.68-1.14-10.8-3.49l-1.31-1.45.22-1.95c2.75-25.28,1.66-73.58.57-89.1-3.06-1.14-6.09-2.13-9-3.11-15.45-5.08-30-9.89-34.52-30.86-3.63-17-1.91-44-.39-67.76.58-9,1.12-17.51,1.25-24.13.62-31.19,3.22-57,7.72-76.59l1.3-5.66,5.07,2.82c42.59,23.63,89,12.67,103.33,6.45l6.48-2.82-.38,7.06c-.28,5.08.15,11.67,3.76,14.26,3.24,2.32,8.58,1,10.36.25l7.37-3-1.43,7.79c-.22,1.19-5.42,29.19-8.67,41.92-1.88,7.37,0,16.76,4,19.7,2.17,1.61,5.27,1.21,9.18-1.19l8.27-5L3553,743c-4.1,18.32-1.35,46.46,1.3,73.68,2.06,21.1,4,41,2.78,56-.28,3.41-2.88,8.5-20.66,17.69a294.51,294.51,0,0,1-38.76,16.13,195.86,195.86,0,0,1-29.74,7.9A60.26,60.26,0,0,1,3458.34,915.36Zm-2.92-8.93c2.58.45,9.41.59,25.68-3.9,32.6-9,64.73-25.4,67.25-30.72,1.12-14.21-.78-33.66-2.78-54.26-2.72-27.85-5.53-56.65-1.16-76.33l4.64-26.05a14,14,0,0,1-11-2.42c-7.72-5.7-9.77-19.16-7.28-28.88,2.24-8.79,5.55-25.66,7.32-34.9a17.35,17.35,0,0,1-11.52-2.8c-4.33-3.07-6.81-8.26-7.4-15.46-15.25,4.91-57.13,14.84-99.82-6.28-3.64,18.29-5.76,41.55-6.31,69.25-.13,6.81-.68,15.41-1.27,24.51-1.41,22.07-3.16,49.53.22,65.39,3.43,16.07,14,19.56,28.71,24.39,3.87,1.28,7.88,2.6,12,4.25l2.47,1,.26,2.65C3456.65,827.62,3458.07,877.76,3455.42,906.43Zm93-34.72Z"/><path class="cls-7" d="M3483.64,663.35l2.33,6.93c.77-.28,18.94-6.69,29.22,6.63l5.62-4.62C3507.36,654.85,3484.6,663,3483.64,663.35Z"/><path class="cls-7" d="M3497.53,694.48c-3-.62-6.12,2-6.92,5.94s1,7.56,4,8.18,6.12-2,6.91-5.94S3500.55,695.09,3497.53,694.48Z"/><path class="cls-7" d="M3414,665.46l4.78,5.4c12.36-11.61,29.24-2.54,29.95-2.15l3.45-6.5C3451.31,661.72,3430.19,650.25,3414,665.46Z"/><path class="cls-7" d="M3437.14,688.48c-3-.62-6.12,2-6.92,5.94s1,7.56,4,8.18,6.12-2,6.92-5.94S3440.16,689.09,3437.14,688.48Z"/><path class="cls-4" d="M3555.31,699.08s-14.35-2.6-25.22,16.21l4.91,48.07c11.88.17,35.56-9.35,38.62-34.14C3575.64,712.78,3567.19,699.25,3555.31,699.08Z"/><path d="M3535.36,767.72h-.42l-3.89-.06-5.44-53.33.7-1.23c11.33-19.61,26.55-18.73,29.35-18.38a20.79,20.79,0,0,1,15.1,7.44c5.9,6.76,8.52,16.82,7.19,27.59C3574.74,755.79,3550.81,767.72,3535.36,767.72Zm-.78-51.44,4.33,42.43c11.16-1.65,28-10.69,30.37-30,1-8.2-.89-16-5.1-20.79a12.08,12.08,0,0,0-8.93-4.46h-.36l-.32-.06C3553.92,703.29,3543.42,702,3534.58,716.28Z"/><path class="cls-7" d="M3462.18,740.54a3.38,3.38,0,0,1-.63-.07c-2.68-.57-11.51-2.83-13-8.09-.48-1.63-.47-4.13,2.25-6.79,7.14-7,6.42-16.8,5.94-23.3a39.86,39.86,0,0,1-.18-4.09,3.05,3.05,0,0,1,3.05-2.94h.12a3.07,3.07,0,0,1,2.94,3.17c0,.78.06,2,.16,3.41.5,6.69,1.42,19.14-7.75,28.12a2.86,2.86,0,0,0-.63.79c.58,1.11,4.66,2.93,8.41,3.74a3.06,3.06,0,0,1-.64,6Z"/><path class="cls-4" d="M3472.48,821.29c9.16,1.13,57.9-28.09,57.9-28.09l-80,23S3463.31,820.15,3472.48,821.29Z"/><path d="M3532.76,796.83s-12.56,7.55-25.83,14.68c-23.63,12.7-30.81,14.2-33.75,14.2a9.22,9.22,0,0,1-1.24-.09h0c-9.43-1.17-22.27-5.09-22.81-5.25l-13-4.71,19.08-2.46c2.05.42,15.91,3.52,17.77,3.75,2.44.2,7.7-.62,18.92-6.33ZM3473,817Z"/><path class="cls-23" d="M3450.46,777.07l-5.63-4.16c.16-.21,15.71-20.67,43.53-7.24l-3.05,6.31C3462.67,761,3451,776.41,3450.46,777.07Z"/><path class="cls-24" d="M1247.21,569.93H905.71a22,22,0,0,0-22,22v182a22,22,0,0,0,22,22H997c12.08,0,29.09,6.85,37.79,15.22l54.51,52.43c8.7,8.37,15.83,5.34,15.83-6.74v-39a22,22,0,0,1,22-22h120.12a22,22,0,0,0,22-22v-182A22,22,0,0,0,1247.21,569.93Z"/><path class="cls-4" d="M1217.72,650.25h-290a7.93,7.93,0,1,0,0,15.85h290a7.93,7.93,0,1,0,0-15.85Z"/><path class="cls-4" d="M1217.72,611.94h-290a7.93,7.93,0,0,0,0,15.86h290a7.93,7.93,0,1,0,0-15.86Z"/><path class="cls-4" d="M1217.72,689.78h-290a7.93,7.93,0,1,0,0,15.85h290a7.93,7.93,0,1,0,0-15.85Z"/><path class="cls-4" d="M1110,729.31H927.77a7.93,7.93,0,0,0,0,15.86H1110a7.93,7.93,0,1,0,0-15.86Z"/><path d="M1085.58,865.25c-2.8,0-6.65-1.2-11.28-5.65l-54.5-52.43c-8.06-7.75-24.31-14.3-35.5-14.3H893a25.31,25.31,0,0,1-25.28-25.28v-182A25.31,25.31,0,0,1,893,560.36h341.5a25.31,25.31,0,0,1,25.28,25.27v182a25.31,25.31,0,0,1-25.28,25.28H1114.39a18.68,18.68,0,0,0-18.65,18.65v39c0,9.79-4.17,13-6.66,14.09A9,9,0,0,1,1085.58,865.25ZM893,567a18.67,18.67,0,0,0-18.65,18.65v182A18.66,18.66,0,0,0,893,786.24H984.3c12.85,0,30.84,7.25,40.09,16.15l54.51,52.43c3.65,3.51,6.31,4.18,7.58,3.64s2.64-2.92,2.64-8v-39a25.31,25.31,0,0,1,25.27-25.28h120.12a18.67,18.67,0,0,0,18.65-18.65v-182A18.68,18.68,0,0,0,1234.51,567Z"/><path class="cls-25" d="M3215.6,1802.43H2874.1a22,22,0,0,0-22,22v182a22,22,0,0,0,22,22h91.29c12.08,0,29.09,6.85,37.8,15.23l54.5,52.43c8.71,8.37,15.83,5.34,15.83-6.74v-38.95a22,22,0,0,1,22-22H3215.6a22,22,0,0,0,22-22v-182A22,22,0,0,0,3215.6,1802.43Z"/><path d="M3054,2097.75c-2.8,0-6.64-1.2-11.27-5.66l-54.51-52.42c-8.06-7.76-24.31-14.3-35.49-14.3h-91.3a25.31,25.31,0,0,1-25.28-25.28v-182a25.31,25.31,0,0,1,25.28-25.28h341.5a25.31,25.31,0,0,1,25.28,25.28v182a25.31,25.31,0,0,1-25.28,25.28H3082.78a18.67,18.67,0,0,0-18.65,18.64v39c0,9.79-4.17,13-6.66,14.09A9,9,0,0,1,3054,2097.75ZM2861.4,1799.48a18.67,18.67,0,0,0-18.65,18.65v182a18.68,18.68,0,0,0,18.65,18.65h91.3c12.85,0,30.83,7.25,40.08,16.15l54.51,52.43c3.65,3.51,6.31,4.18,7.58,3.64s2.64-2.93,2.64-8v-39a25.3,25.3,0,0,1,25.27-25.27H3202.9a18.67,18.67,0,0,0,18.65-18.65v-182a18.66,18.66,0,0,0-18.65-18.65Z"/><g id="_5" data-name="5"><path class="cls-19" d="M2982,1853.48h-79.53a1.4,1.4,0,0,0-1.4,1.4v119.85a1.4,1.4,0,0,0,1.4,1.4h32.23a1.39,1.39,0,0,0,1.39-1.4v-47.58h39.07a1.4,1.4,0,0,0,1.4-1.39v-24.14a1.4,1.4,0,0,0-1.4-1.4h-39.07v-18.13H2982a1.4,1.4,0,0,0,1.4-1.4v-25.81A1.4,1.4,0,0,0,2982,1853.48Z"/><path class="cls-19" d="M3050.71,1854.44a1.4,1.4,0,0,0-1.33-1h-35.3a1.4,1.4,0,0,0-1.33,1l-39,119.86a1.39,1.39,0,0,0,.2,1.25,1.37,1.37,0,0,0,1.13.58H3008a1.4,1.4,0,0,0,1.35-1.05l4.81-18.76h34.34l4.93,18.77a1.39,1.39,0,0,0,1.35,1h33.65a1.39,1.39,0,0,0,1.32-1.83Zm-28.86,73.13,9.56-36.21,9.65,36.21Z"/><path class="cls-19" d="M3195.63,1913.91a88.26,88.26,0,0,0-3.58-26.16,54.55,54.55,0,0,0-10.83-19.81,45.75,45.75,0,0,0-17.57-12.43,62.91,62.91,0,0,0-23.52-4.12,60.14,60.14,0,0,0-23.1,4.2,46.59,46.59,0,0,0-17.51,12.64,55.51,55.51,0,0,0-10.93,20.12,89.81,89.81,0,0,0-3.61,26.54c0,14.18,2.46,26.18,7.32,35.65s11.37,16.62,19.27,21,17.9,6.64,29.83,6.64a65.14,65.14,0,0,0,15.42-1.72l15.33,15.34-3,3.13h7a2.11,2.11,0,0,0,1.52-.64l15.4-15.39a2.17,2.17,0,0,0,0-3.06l-12.95-13a52.17,52.17,0,0,0,9.21-14C3193.52,1939.86,3195.63,1928.06,3195.63,1913.91ZM3156.24,1939a13.54,13.54,0,0,1-.93,1.43c-3.55,4.85-8.45,7.21-15,7.21a17.4,17.4,0,0,1-14.88-7.38l0,0c-3.7-5-5.57-13.51-5.57-25.22s1.9-20.41,5.64-25.43a17.15,17.15,0,0,1,14.55-7.38c6.39,0,11.31,2.38,15,7.27s5.66,13,5.66,23.9C3160.74,1925.26,3159.23,1933.87,3156.24,1939Z"/><path class="cls-4" d="M2975,1853.48h-79.53a1.4,1.4,0,0,0-1.39,1.4v119.85a1.39,1.39,0,0,0,1.39,1.4h32.23a1.4,1.4,0,0,0,1.4-1.4v-47.58h39.07a1.39,1.39,0,0,0,1.39-1.39v-24.14a1.4,1.4,0,0,0-1.39-1.4H2929.1v-18.13H2975a1.4,1.4,0,0,0,1.4-1.4v-25.81A1.4,1.4,0,0,0,2975,1853.48Z"/><path class="cls-4" d="M3043.73,1854.44a1.39,1.39,0,0,0-1.32-1H3007.1a1.41,1.41,0,0,0-1.33,1l-39,119.86a1.42,1.42,0,0,0,.2,1.25,1.37,1.37,0,0,0,1.13.58H3001a1.39,1.39,0,0,0,1.35-1.05l4.82-18.76h34.33l4.93,18.77a1.4,1.4,0,0,0,1.35,1h33.65a1.37,1.37,0,0,0,1.13-.58,1.39,1.39,0,0,0,.2-1.25Zm-28.86,73.13,9.56-36.21,9.65,36.21Z"/><path class="cls-4" d="M3188.65,1913.91a87.93,87.93,0,0,0-3.58-26.16,54.53,54.53,0,0,0-10.82-19.81,45.86,45.86,0,0,0-17.58-12.43,62.91,62.91,0,0,0-23.52-4.12,60.14,60.14,0,0,0-23.1,4.2,46.59,46.59,0,0,0-17.51,12.64,55.81,55.81,0,0,0-10.93,20.12,90.14,90.14,0,0,0-3.61,26.54c0,14.18,2.47,26.18,7.33,35.65s11.37,16.62,19.26,21,17.91,6.64,29.84,6.64a65.11,65.11,0,0,0,15.41-1.72l17.83,17.83a2.15,2.15,0,0,0,3.06,0l15.39-15.39a2.15,2.15,0,0,0,0-3.06l-12.95-13a51.7,51.7,0,0,0,9.21-14C3186.54,1939.86,3188.65,1928.06,3188.65,1913.91ZM3149.27,1939c-.3.51-.61,1-.93,1.43-3.56,4.85-8.46,7.21-15,7.21a17.38,17.38,0,0,1-14.87-7.38l0,0c-3.69-5-5.57-13.51-5.57-25.22s1.9-20.41,5.64-25.43a17.15,17.15,0,0,1,14.56-7.38c6.39,0,11.3,2.38,15,7.27s5.67,13,5.67,23.9C3153.77,1925.26,3152.25,1933.87,3149.27,1939Z"/></g></g></g></svg>